<svg width="401" height="278" viewBox="0 0 401 278" fill="none" xmlns="http://www.w3.org/2000/svg">
<g clip-path="url(#clip0_21_805)">
<path d="M252.779 143.814C242.377 129.261 239.908 108.385 246.575 91.3639C247.336 89.0762 248.594 86.9853 250.259 85.2415C255.295 80.5576 263.337 83.3579 269.201 80.0268C276.794 75.7136 276.985 64.2666 278.71 55.0879C282.031 37.429 295.536 22.5767 311.639 18.8725C317.448 17.536 324.002 17.7314 328.66 21.7433C330.993 23.9738 332.877 26.6313 334.208 29.5716C338.943 38.8373 342.032 50.8667 336.626 59.705C333.02 65.598 326.072 69.2129 324.677 76.1385C323.4 82.4879 327.427 88.4944 328.964 94.7619C331.891 106.674 324.137 120.422 313.097 122.896C307.201 124.217 301.107 122.679 295.095 122.954C289.084 123.228 282.318 126.271 280.733 132.633C279.732 136.657 281.085 140.877 281.285 145.039C281.865 157.072 270.837 168.112 259.956 166.381L252.779 143.814Z" fill="#11B4BC"/>
<path d="M263.541 158.493C265.32 142.523 268.542 126.748 273.166 111.359C274.795 105.95 277.035 100.138 281.312 97.9942C282.291 97.5472 283.309 97.1876 284.352 96.92C286.351 96.4657 288.239 95.6176 289.907 94.425C291.524 93.0055 292.799 91.2381 293.635 89.2555C296.739 82.6993 297.832 75.3601 298.89 68.2618C299.346 65.1942 299.804 62.1255 300.421 59.1172C301.572 53.489 305.304 40.0437 315.083 36.7126L313.53 33.5958C302.289 37.4249 297.973 50.869 296.404 58.5536C295.773 61.6136 295.312 64.7316 294.849 67.8508C293.822 74.7424 292.76 81.8673 289.842 88.0238C289.22 89.5317 288.277 90.886 287.079 91.9928C285.845 92.8324 284.459 93.4238 282.999 93.7339C281.694 94.0729 280.423 94.5317 279.202 95.1045C273.675 97.8707 271.133 104.156 269.212 110.537C264.538 126.091 261.282 142.036 259.482 158.178L263.541 158.493Z" fill="white"/>
<path d="M283.375 157.231C299.113 144.778 305.372 124.578 299.094 106.498C298.352 103.961 296.998 101.645 295.152 99.7519C289.229 94.1754 278.282 95.4399 271.079 91.046C261.749 85.3572 263.162 73.9922 262.223 64.5916C260.425 46.499 244.871 29.2726 224.301 22.5941C216.879 20.186 208.261 19.152 201.571 22.2498C198.346 23.8979 195.489 26.1814 193.17 28.9625C185.623 37.2448 179.833 48.5693 185.64 58.3254C189.514 64.8312 198.097 69.7081 198.923 76.8216C199.68 83.3425 193.531 88.527 190.603 94.4452C185.043 105.684 193.218 120.739 207.329 125.252C214.866 127.662 223.079 127.282 230.919 128.679C238.758 130.076 247.183 134.35 248.34 140.942C249.07 145.112 246.689 149.034 245.821 153.116C243.32 164.913 256.178 177.896 270.685 178.223L283.375 157.231Z" fill="#ACDBF6"/>
<path d="M265.743 170.596L269.807 170.628C269.192 154.114 266.655 137.728 262.247 121.801C260.416 115.17 257.78 108.555 250.925 105.079C249.413 104.357 247.851 103.746 246.25 103.251C244.308 102.725 242.462 101.896 240.778 100.796C239.379 99.6148 238.275 98.1248 237.55 96.4435C234.407 89.9466 233.825 83.0588 233.211 75.765C232.951 72.6533 232.679 69.4357 232.182 66.2798C230.105 52.8901 222.978 42.9827 212.627 39.0918L211.078 42.1619C223.813 46.9467 227.26 60.8319 228.15 66.5812C228.623 69.6374 228.889 72.8033 229.15 75.8658C229.762 83.1054 230.388 90.5845 233.782 97.5959C234.747 99.7972 236.224 101.736 238.09 103.251C240.158 104.656 242.443 105.711 244.853 106.375C246.239 106.802 247.592 107.327 248.904 107.945C254.4 110.731 256.658 116.553 258.278 122.431C262.629 138.142 265.134 154.306 265.742 170.597L265.743 170.596Z" fill="white"/>
<path d="M265.977 159.738C262.117 154.724 259.934 148.623 259.736 142.299C259.538 135.975 261.336 129.749 264.875 124.504C265.807 122.97 267.088 121.677 268.613 120.729C273.419 118.01 280.243 120.477 285.662 118.722C292.682 116.444 293.795 108.87 296.068 102.92C300.445 91.4711 313.523 82.6606 327.957 81.4376C333.164 80.9976 338.898 81.6267 342.654 84.6426C344.438 86.1968 345.874 88.1094 346.87 90.2557C350.258 96.759 351.971 104.967 346.492 110.41C342.836 114.04 336.446 115.903 334.649 120.385C333.002 124.497 336.036 128.781 336.873 133.056C338.454 141.175 330.515 149.699 320.624 150.488C315.342 150.913 310.121 149.427 304.825 149.149C299.528 148.872 293.34 150.37 291.423 154.465C290.212 157.056 291.045 159.956 290.881 162.73C290.395 170.748 279.805 177.219 270.402 175.242L265.977 159.738Z" fill="#ACDBF6"/>
<path d="M274.42 170.407C277.352 159.858 281.473 149.676 286.705 140.057C288.606 136.551 290.885 133.161 294.649 132.114C295.557 131.889 296.481 131.729 297.412 131.634C299.172 131.495 300.898 131.076 302.525 130.392C304.065 129.603 305.402 128.47 306.433 127.081C309.783 122.871 311.369 118.026 312.906 113.338C313.554 111.359 314.203 109.377 314.986 107.446C316.422 103.904 320.697 95.5116 329.359 94.0819L328.564 90.7786C321 92.0255 314.637 97.713 311.126 106.374C310.318 108.368 309.646 110.408 308.983 112.457C307.47 117.09 306.03 121.465 303.039 125.226C302.367 126.155 301.498 126.922 300.494 127.474C299.31 127.934 298.064 128.213 296.797 128.301C295.639 128.424 294.492 128.63 293.364 128.917C288.106 130.378 285.177 134.67 283.009 138.675C277.668 148.493 273.461 158.886 270.469 169.654L274.42 170.407Z" fill="white"/>
<path d="M305.797 209.894C305.892 197.535 304.236 185.225 300.88 173.33C300.008 170.363 298.2 167.757 295.725 165.903C293.25 164.049 290.242 163.045 287.149 163.042H262.894C259.801 163.045 256.793 164.048 254.318 165.903C251.843 167.757 250.035 170.363 249.164 173.33C245.807 185.225 244.152 197.535 244.247 209.894C244.094 223.718 246.203 237.474 250.491 250.618C251.465 253.428 253.29 255.865 255.713 257.59C258.135 259.315 261.036 260.242 264.01 260.242H286.03C289.004 260.242 291.904 259.315 294.327 257.59C296.75 255.866 298.575 253.428 299.548 250.618C303.838 237.475 305.949 223.718 305.797 209.894Z" fill="#FFBB71"/>
<path d="M239.133 203.399C238.435 203.693 237.746 204 237.074 204.333L237.044 204.465C234.876 208.609 203.71 214.047 154.052 214.047C108.498 214.047 78.5295 209.477 72.2066 205.521C71.1412 205.195 70.0631 204.915 68.9801 204.639C68.9902 204.716 69.0081 204.793 69.0332 204.867L79.0818 240.533C80.6282 246.023 83.6777 250.972 87.8865 254.822C92.0954 258.672 97.2961 261.269 102.902 262.321C117.606 265.081 138.755 266.208 154.648 266.208C170.653 266.208 190.788 265.035 205.511 262.263C211.023 261.227 216.137 258.673 220.276 254.888C224.415 251.102 227.415 246.236 228.938 240.838L239.072 204.867C239.103 204.765 239.127 204.662 239.144 204.557L239.216 204.243H239.201C239.218 204.168 239.232 204.091 239.242 204.015C239.234 203.806 239.197 203.599 239.133 203.399Z" fill="#F9B25D"/>
<path d="M72.107 218.232C74.9867 219.416 146.413 254.424 232.868 226.885L239.071 204.868C239.102 204.766 239.126 204.663 239.143 204.558L239.216 204.243H239.201C239.208 204.166 239.242 204.091 239.242 204.014C239.233 203.807 239.195 203.602 239.132 203.404C238.434 203.698 237.745 204.004 237.073 204.337L237.042 204.469C234.875 208.614 203.709 214.052 154.051 214.052C108.496 214.052 81.8619 207.369 75.5427 203.409C74.4773 203.083 69.5198 201.447 68.438 201.176C68.4519 201.253 69.0028 204.802 69.0318 204.877L72.107 218.232Z" fill="#FF9500"/>
<path d="M56.7855 73.9961C56.7855 73.9961 266.654 85.3433 261.931 192.378C261.931 192.378 223.998 223.841 152.921 215.577C81.8441 207.314 38.8089 171.636 19.9119 143.116C1.01487 114.597 0.427386 93.2184 9.28457 87.3821C18.1418 81.5458 27.4641 73.5347 56.7855 73.9961Z" fill="#FC9C29"/>
<path d="M219.266 206.264C211.323 207.07 203.294 207.361 195.327 207.943C189.14 208.395 182.904 209.078 176.702 208.482C163.411 207.201 152.603 198.123 139.538 195.874C125.265 193.41 111.208 197.827 97.2348 192.366C84.942 187.562 74.9917 178.345 62.0885 174.832C57.5887 173.608 52.867 172.98 48.724 170.71C43.9027 168.07 41.0582 163.726 37.8141 159.449C33.6686 153.983 55.9787 148.634 51.1145 143.786C46.0637 138.753 40.1455 135.168 34.8211 130.536C29.0604 125.521 9.89736 119.856 9.31739 112.534C8.46634 101.786 33.7166 91.2087 25.0775 85.2312C20.0544 87.2586 6.20943 89.4322 3.26544 91.3701C12.7493 85.1215 7.44878 130.904 18.3371 147.337C35.034 172.537 110.386 214.619 152.916 219.565C223.993 227.831 261.926 196.367 261.926 196.367C261.999 194.706 262.015 193.068 261.975 191.449C248.194 197.915 234.469 204.725 219.266 206.264Z" fill="#FF9500"/>
<path d="M320.304 169.331C320.304 169.331 336.668 189.009 347.077 186.147C357.486 183.284 372.733 168.686 376.431 176.648C380.129 184.61 349.808 212.911 347.951 209.953C346.093 206.995 330.782 188.635 317.604 179.616C304.426 170.596 320.304 169.331 320.304 169.331Z" fill="#FF907A"/>
<path d="M355.491 199.071C358.479 196.067 360.848 192.505 362.464 188.588C363.822 184.941 363.999 181.033 364.552 177.193C370.006 174.277 374.618 172.735 376.436 176.649C380.134 184.611 349.813 212.913 347.956 209.954C347.658 209.479 346.98 208.575 346.053 207.407C349.428 204.899 352.585 202.11 355.491 199.071Z" fill="#38B6FF"/>
<path d="M320.386 224.235C320.386 224.235 329.573 239.598 337.44 246.992C345.308 254.385 365.713 259.79 360.844 267.097C355.974 274.403 320.48 262.088 317.576 260.143C310.101 255.137 323.486 252.184 310.152 232.108C301.316 218.805 320.386 224.235 320.386 224.235Z" fill="#FF907A"/>
<path d="M354.27 257.286C350.552 259.232 345.751 259.702 341.276 259.556C333.722 259.304 322.441 258.366 315.657 253.551C314.969 256.324 314.455 258.055 317.575 260.146C320.475 262.09 355.973 274.406 360.841 267.099C363.223 263.524 359.555 260.406 354.27 257.286Z" fill="#38B6FF"/>
<path d="M147.515 37.9585C129.107 25.2407 127.204 -0.309716 105.497 0.40138C82.9284 1.14021 65.2305 20.3223 65.9819 43.2375C66.2518 53.4812 70.3219 63.2583 77.4006 70.6675C84.4794 78.0767 94.0608 82.5882 104.281 83.3249C106.324 104.979 127.214 142.393 148.922 141.68C171.49 140.941 195.552 119.69 190.37 85.9941C189.664 64.4191 165.917 50.6737 147.515 37.9585Z" fill="#333854"/>
<path d="M26.4782 96.001C26.4782 96.001 52.2493 115.357 57.9683 96.001C57.9683 96.001 109.398 109.294 110.971 125.827C112.545 142.36 87.0967 151.806 68.7241 142.753C50.3516 133.7 26.4782 96.001 26.4782 96.001Z" fill="#F9B25D"/>
<path d="M75.1532 84.8201C75.1532 84.8201 111.249 73.9165 125.899 94.5938C140.55 115.271 143.507 124.113 156.338 133.748C169.169 143.383 193.608 142.382 190.032 151.156C186.456 159.93 154.648 174.248 154.648 174.248C154.648 174.248 3.69808 168.379 75.1532 84.8201Z" fill="white"/>
<path d="M110.158 22.7593C112.665 23.4065 115.02 24.5411 117.089 26.0985C119.157 27.6559 120.899 29.6056 122.214 31.836C123.529 34.0665 124.392 36.5341 124.753 39.098C125.114 41.662 124.967 44.2721 124.32 46.7791L120.241 62.5707C119.848 64.0905 119.16 65.5181 118.216 66.7719C117.272 68.0258 116.09 69.0813 114.737 69.8783C113.385 70.6752 111.889 71.198 110.335 71.4167C108.78 71.6355 107.198 71.5459 105.679 71.1531L98.1615 69.2114C95.6547 68.564 93.3 67.4291 91.2317 65.8716C89.1634 64.3141 87.4221 62.3645 86.1073 60.1341C84.7926 57.9036 83.9299 55.4359 83.5688 52.8721C83.2077 50.3083 83.3551 47.6985 84.0027 45.1917L86.1398 36.9182C87.4473 31.8556 90.7124 27.5198 95.2167 24.8645C99.721 22.2092 105.096 21.452 110.158 22.7593Z" fill="#FF907A"/>
<path d="M88.9968 50.5637C88.9968 50.5637 83.8475 70.8023 74.0422 86.6709C64.2369 102.539 99.4337 101.904 101.388 94.305C103.153 87.4563 106.019 75.9111 106.891 71.4188C107.891 66.2633 100.354 50.9924 88.9968 50.5637Z" fill="#FF907A"/>
<path d="M328.949 228.124L311.151 244.374C311.151 244.374 268.592 207.04 262.401 174.249C262.401 174.249 197.06 211.334 177.884 183.746C158.708 156.158 169.958 166.492 169.958 166.492C169.958 166.492 255.441 143.777 267.041 151.516C278.64 159.254 328.949 228.124 328.949 228.124Z" fill="#38B6FF"/>
<path d="M154.648 174.249C154.648 174.249 217.52 118.99 254.663 121.712C254.663 121.712 335.915 167.865 339.012 177.876C342.108 187.886 331.273 194.58 327.404 195.489C323.536 196.398 256.213 151.517 256.213 151.517C256.213 151.517 186.957 235.674 154.648 174.249Z" fill="#38B6FF"/>
<path d="M81.5643 22.4936C81.5643 22.4936 105.218 46.3379 134.479 35.6916C134.479 35.6916 112.396 -7.62596 97.5829 2.27139C82.7696 12.1687 81.5643 22.4936 81.5643 22.4936Z" fill="#333854"/>
<path d="M101.866 21.337C101.866 21.337 84.4666 62.6474 83.8539 66.2975C83.8539 66.2975 72.5205 3.58226 101.866 21.337Z" fill="#333854"/>
<path d="M163.46 107.029L170.97 107.844L175.875 62.6099L166.448 72.0659L162.939 104.554L163.46 107.029Z" fill="white"/>
<path d="M149.604 167.904C149.592 168.101 149.543 168.294 149.46 168.473C149.452 168.492 149.442 168.511 149.431 168.529L149.451 168.442L149.492 168.268L149.572 167.919C149.686 167.442 149.774 167.011 149.914 166.485L150.705 163.428L152.368 157.224L155.793 144.76L162.767 119.822V119.801C162.925 119.234 162.971 118.641 162.9 118.056C162.83 117.472 162.645 116.906 162.356 116.393C162.067 115.88 161.68 115.429 161.216 115.065C160.753 114.701 160.222 114.433 159.655 114.274C158.638 113.99 157.554 114.074 156.593 114.511C155.631 114.948 154.855 115.709 154.4 116.662L143.225 140.078L137.678 151.831L134.927 157.757L133.556 160.783C133.331 161.27 133.089 161.861 132.855 162.404L132.679 162.819L132.59 163.027L132.546 163.132L132.463 163.384C132.235 164.081 132.041 164.789 131.883 165.506C131.726 166.669 131.799 167.852 132.099 168.987C132.398 170.121 132.918 171.186 133.63 172.12C134.341 173.054 135.229 173.838 136.243 174.429C137.258 175.019 138.378 175.405 139.541 175.562C140.705 175.72 141.888 175.648 143.024 175.349C144.16 175.049 145.225 174.529 146.16 173.818C147.094 173.107 147.879 172.219 148.47 171.204C149.061 170.189 149.446 169.068 149.604 167.904Z" fill="#FF907A"/>
<path d="M151.939 125.114L163.257 119.719L170.066 114.54C170.524 114.322 170.914 113.984 171.196 113.562C171.479 113.141 171.642 112.651 171.669 112.145L173.853 86.956C173.868 86.7824 173.835 86.6081 173.756 86.4524C173.678 86.2968 173.558 86.1658 173.41 86.0743C173.262 85.9828 173.091 85.9342 172.917 85.9341C172.743 85.9339 172.572 85.9822 172.423 86.0735L171.036 86.9232C170.869 87.0236 170.736 87.174 170.658 87.3533L165.741 98.7635L156.35 102.211L151.939 125.114ZM71.6985 148.779C70.8053 148.7 69.9239 148.521 69.071 148.245C68.8583 148.176 68.6482 148.102 68.4406 148.022L68.2956 147.964H68.312C68.3385 147.964 68.3485 147.94 68.3939 147.938L69.2424 148.197L71.2711 148.908L75.5401 150.488L84.2285 153.812L101.684 160.628L136.609 174.464L136.645 174.478C137.54 174.832 138.495 175.007 139.457 174.992C140.418 174.977 141.368 174.773 142.251 174.392C143.133 174.01 143.932 173.458 144.602 172.768C145.272 172.077 145.799 171.262 146.153 170.367C146.777 168.789 146.835 167.044 146.315 165.428C145.796 163.813 144.732 162.427 143.305 161.509L111.635 141.144L95.7131 131.019L87.6616 125.976L83.5249 123.446L81.3274 122.15L80.045 121.444L79.0491 120.965L78.7968 120.847L78.7339 120.816L78.7023 120.802L78.5233 120.734C78.2712 120.64 78.0152 120.551 77.7555 120.467C76.7176 120.133 75.6511 119.897 74.5695 119.76C70.7205 119.38 66.8781 120.544 63.8875 122.997C60.897 125.449 59.0032 128.989 58.6226 132.838C58.2442 136.686 59.4089 140.526 61.8609 143.515C64.3128 146.504 67.8512 148.397 71.6985 148.779Z" fill="#FF907A"/>
<path d="M156.263 102.473L163.702 91.9539C163.789 91.8311 163.904 91.7309 164.038 91.6618C164.171 91.5926 164.32 91.5566 164.47 91.5566C164.621 91.5566 164.769 91.5926 164.902 91.6618C165.036 91.7309 165.151 91.8311 165.238 91.9539L165.537 92.375C165.621 92.4944 165.676 92.6318 165.698 92.7762C165.72 92.9206 165.708 93.0682 165.663 93.2071L163.645 99.5112L156.263 102.473Z" fill="#FF907A"/>
<path d="M117.665 139.765C95.7193 127.046 64.0681 111.213 60.5883 118.541C48.2891 144.443 81.8328 157.777 108.774 164.14C112.241 156.176 115.849 148.322 117.665 139.765Z" fill="white"/>
<path d="M51.9643 73.9946C51.9643 73.9946 -41.8688 76.9387 35.2612 143.376C118.834 215.368 226.518 221.518 261.932 196.366C261.932 196.366 218.234 264.039 71.8284 213.226C68.4418 212.051 34.2398 200.588 12.7493 154.789C9.2369 146.862 6.33619 138.678 4.07246 130.309C0.532105 116.944 -1.30492 101.362 1.05279 96.3992C5.62953 86.7629 9.16233 75.1218 51.9643 73.9946Z" fill="#F9B25D"/>
<path d="M17.78 93.9119C17.78 93.9119 55.8072 118.356 58.267 136.445C58.267 136.445 85.1967 148.284 97.9825 163.139C97.9825 163.139 161.624 171.749 177.15 194.605C177.15 194.605 207.339 194.183 217.424 204.413C217.424 204.413 183.035 199 174.926 203.916C174.926 203.916 171.944 184.979 91.9181 175.476C91.9181 175.476 81.7056 160.606 45.2354 143.986C34.221 116.889 34.8564 117.301 17.78 93.9119Z" fill="#F9B25D"/>
<path d="M88.1142 52.2608C90.396 52.2608 92.2459 50.411 92.2459 48.1291C92.2459 45.8472 90.396 43.9974 88.1142 43.9974C85.8323 43.9974 83.9825 45.8472 83.9825 48.1291C83.9825 50.411 85.8323 52.2608 88.1142 52.2608Z" fill="#FF907A"/>
</g>
<defs>
<clipPath id="clip0_21_805">
<rect width="400.937" height="277.378" fill="white" transform="translate(0 0.386475)"/>
</clipPath>
</defs>
</svg>
