<svg width="402" height="278" viewBox="0 0 402 278" fill="none" xmlns="http://www.w3.org/2000/svg">
<path d="M42.8484 78.786C65.8203 80.3734 97.8966 75.3744 131.706 47.5824C162.073 22.6184 201.129 17.4112 235.403 34.0148C253.033 42.5543 276.584 47.1385 307.734 42.1835C343.017 36.5716 369.055 79.7343 352.871 116.927C324.639 181.814 275.332 253.668 195.727 251.777C39.2374 248.057 4.33571 180.289 0.655411 128.652C-1.34928 100.457 18.7631 77.1205 42.8484 78.786Z" fill="#ACDBF7"/>
<path d="M55.7767 207.853V190.433H310.31C305.549 196.507 300.467 202.321 295.085 207.853H55.7767Z" fill="#59608E"/>
<path d="M251.705 185.055C257.066 185.055 261.879 183.051 264.264 179.826C264.88 179.075 265.301 178.183 265.49 177.23C265.68 176.277 265.631 175.293 265.35 174.363L259.699 155.881H229.04L234.195 172.743C236.528 180.372 228.395 187.59 217.474 187.59H232.395V185.055H251.705Z" fill="#59608E"/>
<path d="M271.501 172.482L266.425 155.881H259.695L265.346 174.363C265.627 175.293 265.676 176.277 265.486 177.23C265.297 178.183 264.876 179.075 264.26 179.826C261.874 183.051 257.061 185.055 251.701 185.055H232.392V191.485H251.701C259.062 191.485 265.855 188.483 269.431 183.651C270.645 182.091 271.467 180.263 271.827 178.319C272.187 176.375 272.075 174.373 271.501 172.482Z" fill="#3F4572"/>
<path d="M231.66 184.981H195.42C193.612 184.981 192.146 186.447 192.146 188.255C192.146 190.063 193.612 191.529 195.42 191.529H231.66C233.468 191.529 234.934 190.063 234.934 188.255C234.934 186.447 233.468 184.981 231.66 184.981Z" fill="#7179A3"/>
<path d="M229.038 155.881L230.93 162.283H261.964L260.088 155.881C260.088 155.881 228.874 155.717 229.038 155.881Z" fill="#3F4572"/>
<path d="M311.69 157.406H179.825C177.709 157.406 175.679 156.565 174.183 155.069C172.686 153.572 171.846 151.543 171.846 149.427V60.2357C171.846 58.1193 172.686 56.0896 174.183 54.5931C175.679 53.0966 177.709 52.2559 179.825 52.2559H311.628C313.76 52.2559 315.805 53.103 317.313 54.6108C318.821 56.1186 319.669 58.1636 319.669 60.2961V149.427C319.669 151.543 318.828 153.572 317.332 155.069C315.836 156.565 313.806 157.406 311.69 157.406Z" fill="#3F4572"/>
<path d="M304.479 157.406H172.615C170.498 157.406 168.469 156.565 166.972 155.069C165.476 153.572 164.635 151.543 164.635 149.427V60.2357C164.635 58.1193 165.476 56.0896 166.972 54.5931C168.469 53.0966 170.498 52.2559 172.615 52.2559H304.417C306.55 52.2559 308.595 53.103 310.103 54.6108C311.611 56.1186 312.458 58.1636 312.459 60.2961V149.427C312.459 151.543 311.618 153.572 310.121 155.069C308.625 156.565 306.595 157.406 304.479 157.406Z" fill="#59608E"/>
<path d="M294.908 58.1189H176.632C172.882 58.1189 169.842 61.1586 169.842 64.9084V139.925C169.842 143.675 172.882 146.715 176.632 146.715H294.908C298.658 146.715 301.698 143.675 301.698 139.925V64.9084C301.698 61.1586 298.658 58.1189 294.908 58.1189Z" fill="#38B6FF"/>
<path d="M275.122 175.399H280.221C282.341 175.399 284.441 175.817 286.4 176.629C288.359 177.44 290.139 178.629 291.638 180.128C293.137 181.628 294.326 183.408 295.138 185.367C295.949 187.326 296.367 189.425 296.367 191.545H258.976C258.976 189.425 259.394 187.326 260.205 185.367C261.017 183.408 262.206 181.628 263.705 180.128C265.205 178.629 266.985 177.44 268.943 176.629C270.902 175.817 273.002 175.399 275.122 175.399Z" fill="#3F4572"/>
<path d="M107.403 59.3736C118.262 48.5142 118.262 30.9077 107.403 20.0483C96.5434 9.18893 78.9369 9.18893 68.0775 20.0483C57.2181 30.9077 57.2181 48.5142 68.0775 59.3736C78.9369 70.2329 96.5434 70.2329 107.403 59.3736Z" fill="#333854"/>
<path d="M149.152 138.865L201.71 208.638C204.042 211.733 205.048 215.628 204.508 219.465C203.968 223.303 201.926 226.768 198.831 229.1C196.071 231.177 192.665 232.209 189.217 232.015C185.768 231.82 182.5 230.411 179.992 228.037L116.573 167.963C112.353 163.966 109.894 158.456 109.737 152.645C109.58 146.835 111.737 141.2 115.735 136.98C119.732 132.76 125.242 130.302 131.052 130.145C136.863 129.987 142.498 132.144 146.718 136.142C147.598 136.985 148.412 137.895 149.152 138.865Z" fill="#FF9500"/>
<path d="M109.831 102.895H129.374V121.492C129.374 124.598 128.14 127.577 125.944 129.774C123.747 131.97 120.768 133.204 117.662 133.204H109.831V102.895Z" fill="#FF95A9"/>
<path d="M110.896 39.3656C122.038 39.9139 132.507 44.8661 139.998 53.1328C147.489 61.3995 151.39 72.3035 150.842 83.4461L150.434 91.7208C150.299 94.4798 149.621 97.1852 148.44 99.6823C147.259 102.179 145.597 104.419 143.55 106.274C141.503 108.129 139.111 109.562 136.509 110.492C133.908 111.422 131.149 111.831 128.39 111.695L107.387 110.661C103.673 110.478 100.184 108.827 97.6867 106.071C95.1899 103.316 93.8898 99.6812 94.0725 95.9672L96.2008 52.6811C96.2913 50.8419 96.7432 49.0386 97.5306 47.374C98.3181 45.7095 99.4257 44.2163 100.79 42.9798C102.155 41.7434 103.75 40.7878 105.483 40.1676C107.217 39.5475 109.056 39.275 110.896 39.3656Z" fill="#FF95A9"/>
<path d="M141.557 236.311L143.298 149.113C142.852 138.422 133.603 129.913 122.207 129.709L48.3644 128.389L56.1587 218.385C63.9972 224.873 74.1883 218.668 85.0892 224.059L141.557 236.311Z" fill="#FF9500"/>
<path d="M157.133 61.2558L155.557 53.3731C154.324 47.2089 150.994 41.6623 146.133 37.6768C141.272 33.6914 135.18 31.5134 128.894 31.5133H106.688C98.6459 31.5391 90.839 34.2299 84.4889 39.1651C78.1388 44.1003 73.6039 51.0013 71.5935 58.7883C70.8883 61.6923 69.2353 64.2783 66.8957 66.1375C64.5707 67.924 62.6866 70.2203 61.3884 72.8495C60.0902 75.4786 59.4126 78.3705 59.4078 81.3027V81.4186C59.3774 84.4076 58.5585 87.3357 57.0338 89.9069C55.5091 92.478 53.3327 94.6011 50.7246 96.0616C42.4852 100.807 35.7518 107.78 31.2983 116.181C26.8448 124.581 24.8519 134.068 25.5487 143.55C26.4721 155.684 31.7264 167.083 40.3534 175.666C48.9804 184.249 60.4052 189.445 72.5442 190.307C79.4575 190.777 86.3936 189.821 92.9221 187.499C99.4506 185.177 105.432 181.537 110.495 176.807C115.559 172.076 119.596 166.356 122.356 160C125.116 153.644 126.541 146.789 126.541 139.86C126.541 129.999 118.893 88.3884 118.893 88.3884C124.166 88.0807 129.123 85.7737 132.754 81.9378C136.385 78.102 138.417 73.0258 138.435 67.7439V66.357C138.435 65.0048 138.973 63.7078 139.929 62.7516C140.885 61.7954 142.182 61.2582 143.534 61.2582L157.133 61.2558Z" fill="#333854"/>
<path d="M116.959 93.9434C120.376 93.9434 123.145 91.1735 123.145 87.7566C123.145 84.3397 120.376 81.5698 116.959 81.5698C113.542 81.5698 110.772 84.3397 110.772 87.7566C110.772 91.1735 113.542 93.9434 116.959 93.9434Z" fill="#FF95A9"/>
<path d="M268.928 175.034C268.079 173.186 266.538 171.745 264.637 171.023C262.736 170.301 260.627 170.355 258.766 171.173L240.494 179.462L251.393 194.627L266.27 184.513C267.758 183.498 268.841 181.992 269.327 180.258C269.813 178.524 269.672 176.674 268.928 175.034ZM150.765 80.8059L153.739 92.2792H149.915C149.915 92.2792 150.765 79.9511 150.765 80.8059Z" fill="#FF95A9"/>
<path d="M294.401 168.701L299.288 176.014C299.537 176.386 299.628 176.843 299.541 177.283C299.453 177.722 299.195 178.109 298.822 178.359C298.495 178.577 298.102 178.675 297.711 178.636C297.32 178.597 296.955 178.422 296.678 178.143L290.488 171.892C290.253 171.655 290.068 171.375 289.942 171.067C289.816 170.758 289.752 170.428 289.754 170.095C289.756 169.762 289.823 169.433 289.952 169.126C290.081 168.819 290.269 168.54 290.505 168.306C290.742 168.072 291.022 167.886 291.331 167.761C291.639 167.635 291.969 167.571 292.302 167.572C292.635 167.574 292.964 167.641 293.271 167.77C293.578 167.899 293.857 168.087 294.091 168.324C294.206 168.44 294.31 168.566 294.401 168.701Z" fill="#FF95A9"/>
<path d="M295.081 182.281L291.677 175.24C291.613 175.108 291.537 174.981 291.45 174.862C291.285 174.644 291.082 174.458 290.851 174.312C290.539 173.89 290.083 173.596 289.57 173.485L285.001 172.517L292.196 172.013C292.811 171.969 293.384 171.689 293.796 171.231C294.207 170.772 294.425 170.172 294.403 169.557C294.364 168.957 294.106 168.393 293.678 167.971C293.25 167.549 292.683 167.298 292.083 167.267C292.083 167.267 276.37 166.058 275.785 166.058C275.567 166.058 274.465 166.146 274.272 166.194L259.698 170.873L261.477 187.768L269.697 182.036C270.06 181.701 270.513 181.482 271.001 181.405C271.489 181.329 271.988 181.399 272.435 181.607C273.488 182.088 274.631 182.336 275.788 182.335C277.768 182.337 279.679 181.612 281.16 180.299C281.407 180.079 281.696 179.912 282.009 179.806C282.322 179.7 282.654 179.658 282.983 179.682L284.145 179.771L288.81 186.017C289.039 186.325 289.376 186.535 289.754 186.605C290.131 186.675 290.521 186.6 290.846 186.395C291.163 186.174 291.388 185.846 291.481 185.471C291.574 185.096 291.527 184.7 291.35 184.357L288.641 178.756L292.528 183.954C292.757 184.262 293.094 184.472 293.472 184.542C293.849 184.612 294.239 184.537 294.564 184.332C294.886 184.113 295.117 183.783 295.212 183.405C295.307 183.027 295.261 182.627 295.081 182.281Z" fill="#FF95A9"/>
<path d="M186.854 202.965C186.058 203.332 185.292 203.762 184.563 204.251C181.197 206.54 178.877 210.074 178.115 214.073C177.353 218.073 178.212 222.211 180.501 225.578C182.791 228.945 186.324 231.265 190.324 232.027C194.323 232.788 198.462 231.93 201.829 229.641L254.36 194.423L242.248 177.567L186.854 202.965Z" fill="#FF9500"/>
<path d="M259.341 129.527V94.1338C259.341 91.3485 257.083 89.0906 254.297 89.0906H214.548C211.763 89.0906 209.505 91.3485 209.505 94.1338V129.527C209.505 132.313 211.763 134.57 214.548 134.57H254.297C257.083 134.57 259.341 132.313 259.341 129.527Z" fill="#FF9500"/>
<path d="M259.341 94.4413H209.505V83.7421C209.599 78.6911 211.692 73.8834 215.325 70.3731C218.958 66.8627 223.835 64.936 228.886 65.0153H239.961C245.012 64.936 249.889 66.8627 253.522 70.3731C257.155 73.8834 259.248 78.6911 259.342 83.7421L259.341 94.4413ZM215.042 89.0905H253.803V83.7421C253.736 80.1343 252.241 76.7003 249.646 74.193C247.051 71.6856 243.568 70.3095 239.959 70.3662H228.885C225.277 70.3095 221.793 71.6856 219.198 74.193C216.603 76.7003 215.108 80.1343 215.041 83.7421L215.042 89.0905Z" fill="#0068A3"/>
<path d="M241.444 108.532C241.414 106.895 240.737 105.337 239.559 104.2C238.382 103.062 236.802 102.438 235.165 102.465C233.528 102.438 231.947 103.062 230.77 104.2C229.593 105.337 228.915 106.895 228.886 108.532C228.896 109.604 229.192 110.654 229.744 111.573C230.296 112.491 231.084 113.246 232.025 113.758V120.666H238.304V113.758C239.246 113.246 240.033 112.491 240.585 111.573C241.137 110.654 241.434 109.604 241.444 108.532Z" fill="#38B6FF"/>
<path d="M58.1546 220.321C46.2777 211.637 40.7718 205.485 38.2249 199.853C34.2067 190.969 37.7067 184.241 37.7067 184.241C36.2392 174.421 43.0122 166.464 52.8365 166.464H116.052C120.987 166.613 125.717 168.466 129.442 171.706C133.166 174.946 135.655 179.375 136.486 184.241L145.952 248.01C107.809 242.846 79.3185 232.934 58.1546 220.321Z" fill="#162F93"/>
<path d="M33.8714 201.885C33.2006 195.707 32.6559 187.026 32.0798 184.24C30.6134 174.42 37.3852 166.463 47.2095 166.463H110.424C115.359 166.612 120.089 168.464 123.814 171.704C127.539 174.945 130.028 179.374 130.859 184.24L140.179 247.18C88.2375 239.292 54.9093 222.327 33.8714 201.885Z" fill="#38B6FF"/>
</svg>
