<svg width="401" height="278" viewBox="0 0 401 278" fill="none" xmlns="http://www.w3.org/2000/svg">
<path d="M59.0431 100.183C75.7652 86.7326 97.7373 85.2285 117.333 94.3933C132.363 101.422 199.248 102.641 221.885 57.6546C281.701 14.197 363.324 90.3902 366.454 172.985C367.393 197.786 362.34 222.074 347.356 242.968C328.904 268.699 299.72 281.183 270.06 277.211C235.846 272.628 177.39 266.6 131.537 271.131C78.8151 276.341 30.9649 228.516 30.3055 167.813C30.0243 142.125 37.3736 117.612 59.0431 100.183Z" fill="#ACDBF6"/>
<path d="M223.567 119.07L223.624 118.997L223.639 118.977C223.876 118.689 224.131 118.413 224.396 118.14L224.423 118.111C224.473 118.06 224.519 118.009 224.57 117.958C224.62 117.908 224.647 117.876 224.686 117.832C224.778 117.74 224.858 117.642 224.953 117.551C225.136 117.378 225.331 117.228 225.52 117.065L225.551 117.04L225.677 116.937L225.824 116.811C226.18 116.52 226.545 116.247 226.919 115.993L227.027 115.917C227.421 115.651 227.824 115.406 228.236 115.182L228.314 115.139C228.74 114.909 229.175 114.699 229.617 114.509L229.686 114.48C230.106 114.302 230.533 114.145 230.965 114.007H230.975L231.063 113.978L231.128 113.956C231.585 113.815 232.047 113.696 232.515 113.598H232.523L232.587 113.584L232.625 113.576C233.852 113.322 235.105 113.216 236.357 113.259H243.802C243.802 112.915 243.802 112.571 243.829 112.221L245.299 93.1832C239.593 92.3517 234.417 89.385 230.815 84.8828C227.214 80.3806 225.456 74.6789 225.897 68.9303L227.77 44.6761C227.937 42.4812 228.436 40.3243 229.249 38.2787L229.375 38.2888C238.812 39.0179 247.753 42.8053 254.843 49.0763C260.376 53.9698 267.355 56.925 274.72 57.4935L275.828 57.5792C276.556 57.6353 277.265 57.8343 277.916 58.1647C278.567 58.4951 279.147 58.9505 279.622 59.5049C280.096 60.0592 280.457 60.7017 280.684 61.3957C280.91 62.0896 280.998 62.8213 280.942 63.5491C280.886 64.2768 280.687 64.9863 280.356 65.6372C280.026 66.288 279.571 66.8674 279.017 67.3422C278.462 67.8171 277.82 68.1782 277.126 68.4048C276.432 68.6314 275.701 68.7191 274.973 68.663L273.865 68.5772L272.856 81.6191L270.414 113.258H294.194C294.685 113.263 295.174 113.305 295.658 113.384C297.772 113.647 299.81 114.339 301.647 115.418C302.234 115.768 302.799 116.157 303.336 116.58L303.346 116.566L308.468 120.535C308.496 119.48 308.49 118.363 308.443 117.159C307.743 99.6978 294.791 100.39 294.09 82.924C293.991 80.9092 294.174 78.8904 294.634 76.9263C296 74.6224 297.154 72.1987 298.08 69.6855C298.248 69.2455 298.404 68.7916 298.546 68.3516C300.081 63.7585 300.86 58.9469 300.853 54.1044C300.851 42.1906 296.118 30.7651 287.693 22.3408C279.269 13.9164 267.844 9.1831 255.93 9.18176C244.014 9.18043 232.586 13.9125 224.159 22.3371C215.732 30.7616 210.997 42.1886 210.995 54.1044C210.987 58.9469 211.766 63.7584 213.299 68.3516C213.442 68.7916 213.598 69.219 213.753 69.659L213.766 69.6716C214.696 72.1973 215.854 74.6335 217.224 76.9503C217.672 78.9076 217.851 80.917 217.755 82.9227C217.055 100.384 204.114 99.6915 203.416 117.158C202.985 127.932 205.781 132.316 207.989 138.195L223.547 119.058L223.567 119.07Z" fill="#77325A"/>
<path d="M224.567 117.958C224.608 117.919 224.643 117.876 224.683 117.832C224.643 117.876 224.606 117.922 224.567 117.958ZM223.642 118.977C223.636 118.983 223.631 118.99 223.625 118.997L223.642 118.977ZM114.536 142.152L100.685 137.851V137.86C99.7933 137.582 98.8615 137.454 97.9277 137.482C95.6857 137.547 93.5614 138.501 92.022 140.132C90.4827 141.763 89.6541 143.939 89.7186 146.181C89.7842 148.424 90.7374 150.548 92.3687 152.087C94.0001 153.627 96.176 154.456 98.4182 154.392L111.504 154.014L120.447 158.116L125.268 145.492L114.536 142.152Z" fill="#FF95A9"/>
<path d="M218.059 172.174C217.94 172.126 217.828 172.064 217.711 172.013C217.828 172.063 217.939 172.124 218.059 172.174ZM215.289 170.704C215.24 170.672 215.197 170.635 215.149 170.602C215.197 170.635 215.241 170.671 215.289 170.704ZM221.099 173.062C220.973 173.038 220.847 173.019 220.721 172.992C220.844 173.02 220.971 173.038 221.099 173.062ZM216.631 171.505C216.544 171.458 216.463 171.402 216.378 171.355C216.462 171.402 216.542 171.458 216.631 171.505Z" fill="#FFC359"/>
<path d="M356.317 157.64C356.142 157.487 355.957 157.352 355.776 157.211L355.785 157.198L308.477 120.535L303.355 116.565L303.345 116.579C302.808 116.155 302.243 115.767 301.656 115.416C299.818 114.338 297.781 113.646 295.667 113.383C295.183 113.304 294.693 113.262 294.203 113.257H270.423L270.345 114.265C270.073 117.781 268.415 121.044 265.737 123.337C263.059 125.631 259.58 126.767 256.065 126.495C252.73 126.237 249.615 124.73 247.343 122.276C245.07 119.822 243.807 116.601 243.805 113.257H236.344C235.092 113.214 233.839 113.32 232.612 113.573L232.575 113.582L232.514 113.595H232.503C232.038 113.693 231.576 113.812 231.116 113.953L231.05 113.974L230.962 114.003H230.952C230.521 114.142 230.095 114.299 229.674 114.476L229.604 114.506C229.163 114.694 228.729 114.904 228.302 115.137L228.224 115.179C227.81 115.406 227.406 115.651 227.014 115.914L226.906 115.99C226.528 116.242 226.167 116.516 225.812 116.808L225.664 116.934L225.538 117.038L225.508 117.063C225.32 117.226 225.13 117.376 224.94 117.548C224.846 117.638 224.765 117.738 224.673 117.83C224.633 117.87 224.597 117.912 224.557 117.956C224.517 118 224.46 118.058 224.411 118.108L224.383 118.137C224.122 118.411 223.867 118.687 223.627 118.974L223.61 118.995L223.554 119.068L223.542 119.056L207.984 138.194L186.583 164.517L125.26 145.479L120.438 158.104L185.809 188.092C187.518 188.877 189.396 189.227 191.274 189.111C193.151 188.994 194.971 188.415 196.571 187.425C197.236 187.013 197.856 186.534 198.423 185.995L214.87 170.399C212.954 169.034 222.005 173.203 222.075 173.212L224.128 217.592H280.338L288.489 185.19L297.641 149.391L308.627 155.92L331.046 169.055L315.274 186.998L292.705 212.675L302.252 222.241L356.289 174.79L356.278 174.779C356.653 174.454 357.007 174.106 357.337 173.735C359.332 171.464 360.346 168.494 360.155 165.477C359.963 162.459 358.583 159.641 356.317 157.64Z" fill="#38B6FF"/>
<path d="M292.719 212.691L286.289 220.004L284.327 220.737L274.123 224.546C273.082 224.934 272.128 225.524 271.315 226.281C270.501 227.038 269.845 227.948 269.384 228.959C268.922 229.97 268.665 231.062 268.625 232.172C268.586 233.283 268.766 234.39 269.154 235.431C269.543 236.472 270.133 237.427 270.89 238.24C271.647 239.053 272.557 239.709 273.568 240.17C274.579 240.632 275.671 240.89 276.781 240.929C277.892 240.968 278.999 240.789 280.04 240.4C280.915 240.072 281.728 239.601 282.448 239.006V239.012L292.923 230.41L293.658 229.806L293.644 229.782C293.692 229.743 293.745 229.709 293.791 229.668L293.803 229.681L302.258 222.256L292.719 212.691Z" fill="#B56A64"/>
<path d="M255.935 102.988C282.527 102.988 304.084 81.4314 304.084 54.8394C304.084 28.2474 282.527 6.69031 255.935 6.69031C229.343 6.69031 207.786 28.2474 207.786 54.8394C207.786 81.4314 229.343 102.988 255.935 102.988Z" fill="#77325A"/>
<path d="M272.864 81.6164L273.872 68.5746L274.981 68.6603C276.45 68.7734 277.904 68.2982 279.024 67.3392C280.143 66.3802 280.836 65.016 280.949 63.5465C281.006 62.8187 280.918 62.0869 280.691 61.393C280.465 60.6991 280.104 60.0566 279.629 59.5022C279.154 58.9478 278.575 58.4924 277.924 58.162C277.273 57.8316 276.563 57.6327 275.835 57.5766L274.727 57.4908C267.362 56.9227 260.384 53.9675 254.851 49.0737C247.761 42.8031 238.819 39.0162 229.382 38.2874L229.256 38.2773C228.443 40.3229 227.944 42.4798 227.777 44.6747L225.905 68.9289C225.463 74.6775 227.221 80.3792 230.823 84.8814C234.424 89.3836 239.601 92.3504 245.306 93.1818L243.836 112.22C243.81 112.568 243.81 112.913 243.81 113.258C243.812 116.602 245.075 119.823 247.348 122.277C249.62 124.731 252.735 126.238 256.07 126.496C259.585 126.768 263.064 125.632 265.742 123.338C268.42 121.045 270.078 117.782 270.35 114.266L270.428 113.258L272.87 81.6189L272.864 81.6164ZM243.047 81.5143C242.177 81.4392 241.33 81.1935 240.555 80.7912C239.78 80.3889 239.092 79.8378 238.53 79.1695C237.968 78.5012 237.543 77.7288 237.28 76.8963C237.017 76.0638 236.92 75.1875 236.995 74.3176L250.242 75.4624C250.168 76.3328 249.923 77.18 249.521 77.9556C249.119 78.7312 248.568 79.42 247.9 79.9826C247.232 80.5453 246.459 80.9707 245.626 81.2346C244.794 81.4985 243.917 81.5957 243.047 81.5206V81.5143Z" fill="#B56A64"/>
<path d="M250.245 75.4712L236.998 74.3264C236.922 75.1962 237.019 76.0724 237.283 76.9047C237.546 77.7371 237.971 78.5094 238.533 79.1775C239.095 79.8457 239.783 80.3966 240.558 80.7989C241.333 81.2011 242.18 81.4468 243.049 81.5219C244.806 81.6735 246.551 81.1213 247.9 79.9866C249.25 78.8519 250.093 77.2277 250.245 75.4712Z" fill="white"/>
<path d="M270.061 277.211C280.28 278.595 290.67 277.995 300.662 275.446L299.555 264.893V253.007C299.554 244.996 297.254 237.153 292.928 230.411L282.453 239.012V239.006C281.733 239.601 280.92 240.072 280.045 240.4C279.004 240.789 277.897 240.968 276.786 240.929C275.676 240.89 274.584 240.632 273.573 240.17C272.562 239.709 271.652 239.053 270.895 238.24C270.138 237.427 269.548 236.472 269.159 235.431C268.771 234.39 268.591 233.283 268.631 232.172C268.67 231.062 268.928 229.97 269.389 228.959C269.851 227.948 270.507 227.038 271.32 226.281C272.133 225.524 273.087 224.934 274.128 224.546L284.332 220.737C284.017 220.477 283.709 220.208 283.385 219.956L280.32 217.496H224.107C223.151 219.423 222.351 221.506 221.585 223.504C218.498 231.491 216.91 239.979 216.901 248.541V265.096C216.901 265.524 216.934 265.945 216.966 266.365H216.949L217.046 267.664V271.572C237.159 273.121 255.736 275.292 270.061 277.211Z" fill="#4B4B4B"/>
<path d="M215.283 170.704C215.633 170.937 216 171.149 216.369 171.354C216.455 171.402 216.536 171.458 216.622 171.504C216.972 171.69 217.337 171.852 217.702 172.009C217.819 172.059 217.93 172.121 218.05 172.169C218.532 172.366 219.026 172.539 219.532 172.688L219.551 172.696C219.929 172.809 220.32 172.906 220.708 172.99C220.834 173.016 220.96 173.035 221.086 173.059C221.346 173.108 221.606 173.157 221.868 173.193C222.571 173.29 223.281 173.34 223.991 173.341C227.168 173.341 230.27 172.374 232.884 170.568L231.514 168.576C229.886 169.697 228.028 170.441 226.076 170.753C224.124 171.066 222.127 170.94 220.23 170.384C218.553 169.894 216.991 169.076 215.632 167.978C214.274 166.88 213.147 165.523 212.316 163.986C211.477 162.454 210.95 160.77 210.766 159.033C210.583 157.296 210.745 155.54 211.244 153.866C211.703 152.326 212.437 150.883 213.412 149.607L224.507 134.959L222.58 133.497L212.211 147.168L211.491 148.147C210.34 149.656 209.473 151.362 208.932 153.181C208.341 155.159 208.149 157.234 208.365 159.287C208.581 161.34 209.203 163.33 210.193 165.141C211.331 167.232 212.931 169.034 214.872 170.413C214.96 170.476 215.046 170.539 215.135 170.605C215.196 170.634 215.24 170.672 215.283 170.704ZM251.343 168.408L249.928 170.368C251.372 171.409 252.982 172.197 254.689 172.698C256.132 173.126 257.63 173.343 259.135 173.344C262.312 173.343 265.414 172.376 268.029 170.57L266.659 168.578C265.031 169.699 263.173 170.443 261.221 170.756C259.269 171.069 257.271 170.942 255.374 170.386C253.928 169.96 252.565 169.291 251.343 168.408Z" fill="#32A8ED"/>
<path d="M194.371 224.26C203.06 221.885 208.178 212.916 205.803 204.228C203.428 195.54 194.459 190.422 185.771 192.797C177.083 195.171 171.965 204.14 174.34 212.828C176.715 221.516 185.683 226.634 194.371 224.26Z" fill="#199481"/>
<path d="M181.691 154.205C175.617 156.029 169.068 155.366 163.483 152.362C157.899 149.357 153.736 144.257 151.912 138.184C150.088 132.11 150.751 125.561 153.755 119.976C156.76 114.392 161.86 110.229 167.933 108.405C180.58 104.606 194.841 111.972 198.64 124.62C202.439 137.269 194.339 150.406 181.691 154.205Z" fill="#FF9500"/>
<path d="M114.582 154.664C127.58 152.333 136.228 139.906 133.896 126.907C131.565 113.909 119.138 105.262 106.139 107.593C93.1411 109.924 84.4936 122.351 86.8249 135.35C89.1562 148.348 101.583 156.995 114.582 154.664Z" fill="#FF9500"/>
<path d="M192.116 124.784L186.271 243.939H99.0902L93.2451 124.784C93.1341 122.52 93.4842 120.256 94.2743 118.131C95.0644 116.006 96.2779 114.064 97.8413 112.422C99.4046 110.78 101.285 109.473 103.369 108.58C105.453 107.687 107.696 107.226 109.963 107.226H175.399C177.666 107.226 179.91 107.687 181.993 108.58C184.077 109.473 185.957 110.781 187.521 112.423C189.084 114.064 190.297 116.007 191.087 118.132C191.877 120.257 192.227 122.52 192.116 124.784Z" fill="#FF9500"/>
<path d="M185.432 261.059L185.471 260.258L186.479 243.085L99.0208 242.976L99.8907 260.258L99.9298 261.057C100.057 263.719 100.836 266.308 102.199 268.597C111.739 271.238 121.684 272.097 131.536 271.13C148.451 269.618 165.444 269.151 182.417 269.73C184.234 267.19 185.281 264.179 185.432 261.059Z" fill="#535353"/>
<path d="M129.526 74.8384H159.415V107.226H129.526V74.8384Z" fill="#FF95A9"/>
<path d="M71.7912 215.938C67.4661 215.945 63.3152 214.234 60.2516 211.181C57.188 208.128 55.4626 203.983 55.4549 199.658C55.4504 197.516 55.868 195.394 56.6837 193.414C57.4995 191.433 58.6975 189.632 60.2092 188.115C61.721 186.597 63.5169 185.392 65.4945 184.569C67.472 183.745 69.5923 183.32 71.7344 183.316C76.0595 183.308 80.2104 185.019 83.274 188.072C86.3377 191.125 88.0631 195.27 88.0708 199.595C88.0752 201.737 87.6577 203.859 86.8419 205.84C86.0261 207.821 84.8281 209.621 83.3164 211.139C81.8046 212.657 80.0087 213.861 78.0312 214.685C76.0536 215.508 73.9333 215.934 71.7912 215.938Z" fill="#FF9500"/>
<path d="M129.989 144.785L85.2239 209.12L56.8998 193.252L88.4604 121.521L129.989 144.785Z" fill="#FF9500"/>
<path d="M175.058 49.0777H170.712V19.7399H175.058C178.947 19.7412 182.677 21.2872 185.427 24.0379C188.176 26.7886 189.721 30.5187 189.721 34.4081C189.721 38.2976 188.176 42.0279 185.427 44.7788C182.677 47.5297 178.947 49.076 175.058 49.0777ZM117.595 54.0251H139.326V76.7928H129.053C126.014 76.7928 123.1 75.5856 120.951 73.4367C118.802 71.2879 117.595 68.3734 117.595 65.3345V54.0251Z" fill="#333854"/>
<path d="M160.321 10.5673H170.156C171.962 10.5668 173.75 10.9221 175.419 11.6129C177.088 12.3037 178.604 13.3164 179.881 14.5933C181.158 15.8702 182.172 17.3862 182.863 19.0547C183.554 20.7233 183.91 22.5116 183.91 24.3177V35.8868C183.91 39.1842 182.6 42.3466 180.268 44.6782C177.937 47.0098 174.774 48.3197 171.477 48.3197H160.321V10.5673Z" fill="#333854"/>
<path d="M163.219 87.836H129.548V44.3936C129.547 41.2514 130.166 38.14 131.369 35.237C132.571 32.3339 134.333 29.6962 136.555 27.4743C138.777 25.2524 141.415 23.4898 144.317 22.2874C147.22 21.0849 150.332 20.4659 153.474 20.4659C159.62 20.4659 165.529 22.8306 169.979 27.0698C174.428 31.309 177.076 37.0978 177.373 43.2362L178.743 71.5426C178.845 73.6444 178.518 75.745 177.784 77.7169C177.05 79.6889 175.923 81.4913 174.471 83.0147C173.02 84.5382 171.274 85.7511 169.34 86.5798C167.405 87.4086 165.323 87.8359 163.219 87.836Z" fill="#FF95A9"/>
<path d="M140.513 16.3798H142.583V57.2855H117.595V39.2975C117.595 33.2193 120.01 27.3901 124.308 23.0922C128.605 18.7943 134.435 16.3798 140.513 16.3798Z" fill="#333854"/>
<path d="M129.544 61.3628H136.063V54.8431C136.063 53.114 135.377 51.4557 134.154 50.233C132.931 49.0104 131.273 48.3235 129.544 48.3235C127.815 48.3235 126.156 49.0104 124.934 50.233C123.711 51.4557 123.024 53.114 123.024 54.8431C123.024 56.5723 123.711 58.2305 124.934 59.4532C126.156 60.6759 127.815 61.3628 129.544 61.3628Z" fill="#FF95A9"/>
<path d="M180.786 36.6472H156.035C151.184 36.6418 146.534 34.7127 143.104 31.2831C139.674 27.8534 137.745 23.2033 137.739 18.3528C137.741 16.0477 138.657 13.8375 140.287 12.2076C141.917 10.5776 144.127 9.66122 146.432 9.65955C148.738 9.66122 150.948 10.5776 152.578 12.2076C154.208 13.8375 155.124 16.0477 155.126 18.3528C155.126 18.5938 155.222 18.8248 155.392 18.9953C155.563 19.1657 155.794 19.2615 156.035 19.2619H180.786V36.6472Z" fill="#333854"/>
<path d="M171.549 27.9526H159.235C156.93 27.9509 154.72 27.0346 153.09 25.405C151.46 23.7753 150.543 21.5654 150.541 19.2605C150.543 16.9555 151.459 14.7453 153.089 13.1153C154.719 11.4854 156.929 10.5689 159.235 10.5673H171.549C173.854 10.5689 176.064 11.4854 177.694 13.1153C179.324 14.7453 180.24 16.9555 180.242 19.2605C180.24 21.5654 179.324 23.7753 177.694 25.405C176.064 27.0346 173.854 27.9509 171.549 27.9526Z" fill="#333854"/>
<path d="M144.496 122.155C152.749 122.155 159.44 115.465 159.44 107.211C159.44 98.9574 152.749 92.2666 144.496 92.2666C136.242 92.2666 129.551 98.9574 129.551 107.211C129.551 115.465 136.242 122.155 144.496 122.155Z" fill="#FF95A9"/>
<path d="M168.031 137.072H163.366V141.737H168.031V155.744H172.696V141.737C172.696 140.5 172.205 139.313 171.33 138.438C170.455 137.563 169.268 137.072 168.031 137.072ZM177.369 141.741V137.076H172.704C172.704 138.313 173.195 139.499 174.07 140.374C174.945 141.249 176.132 141.741 177.369 141.741Z" fill="white"/>
<path d="M151.911 138.184L174.459 213.246L206.365 207.54L199.41 128.138L151.911 138.184Z" fill="#FF9500"/>
<path d="M206.322 207.026L174.424 213.124L191.175 270.033C198.291 270.327 205.357 270.736 212.272 271.226L206.322 207.026ZM65.3912 248.007C72.2093 254.233 79.9087 259.42 88.2409 263.399L88.0707 199.602L55.7599 202.814L65.3912 248.007Z" fill="#FF9500"/>
</svg>
