<svg width="321" height="101" viewBox="0 0 321 101" fill="none" xmlns="http://www.w3.org/2000/svg">
<path d="M151.516 79.9199L151.797 56.8906L151.516 30.6316C151.516 30.6316 152.124 30.5848 153.341 30.4912C154.605 30.3975 156.197 30.2805 158.116 30.1401C160.082 29.9997 162.164 29.8827 164.364 29.7891C166.611 29.6954 168.718 29.6486 170.683 29.6486C175.785 29.6486 179.717 31.0997 182.479 34.0017C185.287 36.9038 186.692 41.2335 186.692 46.9908C186.692 50.595 186.2 53.5673 185.217 55.9076C184.234 58.248 182.9 60.0969 181.215 61.4543C179.53 62.7649 177.634 63.7011 175.528 64.2628C173.468 64.7776 171.339 65.0351 169.139 65.0351C167.36 65.0351 165.815 65.0117 164.505 64.9649C163.194 64.8713 162.539 64.8244 162.539 64.8244V79.9199H151.516ZM169.349 56.2587C170.473 56.2587 171.409 56.1651 172.158 55.9778C172.907 55.7438 173.445 55.4864 173.773 55.2055C174.288 54.6906 174.662 53.7545 174.896 52.3971C175.13 51.0396 175.247 49.0503 175.247 46.4291C175.247 44.51 175.154 43.0824 174.966 42.1462C174.826 41.2101 174.639 40.5782 174.405 40.2505C174.171 39.8761 173.937 39.5952 173.703 39.408C173.422 39.1271 172.883 38.8931 172.088 38.7059C171.292 38.5186 170.192 38.425 168.788 38.425C167.711 38.425 166.611 38.4718 165.488 38.5655C164.411 38.6123 163.428 38.6825 162.539 38.7761V55.7672C162.539 55.7672 163.194 55.8608 164.505 56.048C165.815 56.1885 167.43 56.2587 169.349 56.2587ZM186.741 79.9199L200.292 30.5614H214.615L228.166 79.9199H216.791L213 64.1925L219.108 68.9669H195.798L201.907 64.1925L198.115 79.9199H186.741ZM201.696 64.4734L197.905 59.699H217.002L213.211 64.4734L206.541 36.0379L212.579 40.8122H202.328L208.366 36.0379L201.696 64.4734ZM233.589 79.9199L233.87 56.8906L233.589 30.6316C233.589 30.6316 234.197 30.5848 235.414 30.4912C236.678 30.3975 238.27 30.2805 240.189 30.1401C242.155 29.9997 244.238 29.8827 246.437 29.7891C248.684 29.6954 250.791 29.6486 252.756 29.6486C257.859 29.6486 261.79 31.0997 264.552 34.0017C267.36 36.9038 268.765 41.2335 268.765 46.9908C268.765 50.595 268.273 53.5673 267.29 55.9076C266.307 58.248 264.973 60.0969 263.288 61.4543C261.603 62.7649 259.707 63.7011 257.601 64.2628C255.542 64.7776 253.412 65.0351 251.212 65.0351C249.433 65.0351 247.889 65.0117 246.578 64.9649C245.267 64.8713 244.612 64.8244 244.612 64.8244V79.9199H233.589ZM251.422 56.2587C252.546 56.2587 253.482 56.1651 254.231 55.9778C254.98 55.7438 255.518 55.4864 255.846 55.2055C256.361 54.6906 256.735 53.7545 256.969 52.3971C257.203 51.0396 257.32 49.0503 257.32 46.4291C257.32 44.51 257.227 43.0824 257.039 42.1462C256.899 41.2101 256.712 40.5782 256.478 40.2505C256.244 39.8761 256.01 39.5952 255.776 39.408C255.495 39.1271 254.956 38.8931 254.161 38.7059C253.365 38.5186 252.265 38.425 250.861 38.425C249.784 38.425 248.684 38.4718 247.561 38.5655C246.484 38.6123 245.501 38.6825 244.612 38.7761V55.7672C244.612 55.7672 245.267 55.8608 246.578 56.048C247.889 56.1885 249.503 56.2587 251.422 56.2587ZM295.943 80.8326C293.088 80.8326 290.373 80.4581 287.798 79.7092C285.271 78.9603 283.024 77.6497 281.058 75.7774C279.139 73.9051 277.618 71.3073 276.494 67.984C275.418 64.6138 274.88 60.3309 274.88 55.1353C274.88 49.9397 275.418 45.6802 276.494 42.3569C277.618 39.0335 279.139 36.4591 281.058 34.6336C283.024 32.7613 285.271 31.4741 287.798 30.772C290.373 30.0231 293.088 29.6486 295.943 29.6486C298.845 29.6486 301.56 30.0231 304.087 30.772C306.615 31.4741 308.838 32.7613 310.758 34.6336C312.723 36.4591 314.245 39.0335 315.321 42.3569C316.445 45.6802 317.006 49.9397 317.006 55.1353C317.006 60.3309 316.445 64.6138 315.321 67.984C314.245 71.3073 312.723 73.9051 310.758 75.7774C308.838 77.6497 306.615 78.9603 304.087 79.7092C301.56 80.4581 298.845 80.8326 295.943 80.8326ZM295.943 71.1435C297.628 71.1435 299.056 70.9562 300.226 70.5818C301.443 70.1605 302.449 69.4116 303.245 68.335C304.041 67.2116 304.626 65.5968 305 63.4904C305.375 61.3841 305.562 58.6459 305.562 55.2757C305.562 51.8588 305.375 49.0971 305 46.9908C304.626 44.8845 304.041 43.293 303.245 42.2164C302.496 41.0931 301.513 40.3441 300.296 39.9697C299.079 39.5484 297.628 39.3378 295.943 39.3378C294.258 39.3378 292.807 39.5484 291.59 39.9697C290.373 40.3441 289.367 41.0931 288.571 42.2164C287.822 43.293 287.26 44.8845 286.886 46.9908C286.511 49.0971 286.324 51.8588 286.324 55.2757C286.324 58.6927 286.511 61.4543 286.886 63.5606C287.26 65.6202 287.845 67.2116 288.641 68.335C289.437 69.4116 290.42 70.1605 291.59 70.5818C292.807 70.9562 294.258 71.1435 295.943 71.1435Z" fill="#38B6FF"/>
<path d="M90.9454 53.3577C97.5551 55.0902 104.75 55.1313 111.547 55.2273C113.426 55.2547 115.304 55.2684 117.183 55.2959C114.313 58.843 109.92 61.1148 104.988 61.1148C104.796 61.1148 104.608 61.1057 104.421 61.1011C102.592 67.688 96.5312 72.5287 89.3318 72.5287C88.1159 72.5287 86.932 72.3916 85.7938 72.1264C86.3195 66.4446 85.9584 60.0863 83.5495 54.9805C82.4981 52.7452 80.9805 50.926 79.1476 49.5226C83.1061 50.7203 86.9458 52.311 90.9454 53.3577Z" fill="#38B6FF"/>
<mask id="mask0_14_10580" style="mask-type:luminance" maskUnits="userSpaceOnUse" x="56" y="7" width="65" height="44">
<path d="M56.1827 7.39136H120.726V50.6883H56.1827V7.39136Z" fill="white"/>
</mask>
<g mask="url(#mask0_14_10580)">
<path d="M56.4889 34.2097C56.7632 32.7789 57.0832 31.4807 57.8054 30.2968C58.1757 29.6935 58.1939 29.6295 58.6008 29.2044C59.0076 28.7884 59.3413 28.4821 59.5561 28.3404C61.6588 26.9371 64.1683 26.4252 66.8698 26.0595C69.649 25.6801 72.9767 25.7212 74.7365 23.1523C76.3227 20.8394 75.9204 17.4248 76.4964 14.7873C76.6701 14.0057 76.8849 13.2743 77.15 12.5795C79.9292 10.0426 83.6364 8.4884 87.7092 8.4884C96.353 8.4884 103.36 15.4638 103.36 24.0711C103.36 26.2515 102.908 28.3267 102.099 30.21C103.036 30.0363 104 29.9403 104.988 29.9403C113.632 29.9403 120.639 36.9203 120.639 45.5276C120.639 47.0406 120.42 48.5033 120.017 49.8838C116.603 49.8152 113.184 49.8015 109.769 49.7283C103.429 49.5958 96.7598 49.5181 90.6666 47.58C85.995 46.0898 81.4285 44.1974 76.6061 43.2146C71.8933 42.2593 66.8698 41.985 62.9341 45.1664C62.6233 45.1025 62.3124 45.0385 62.0016 44.9608C60.6577 44.6316 59.8715 44.4031 58.907 43.8134C58.1665 43.3609 57.6363 42.8901 57.2386 42.2136C56.7312 41.3405 56.3609 40.2571 56.2741 39.0047C56.169 37.414 56.1827 35.7775 56.4889 34.2097Z" fill="#0292B7"/>
</g>
<mask id="mask1_14_10580" style="mask-type:luminance" maskUnits="userSpaceOnUse" x="18" y="0" width="56" height="36">
<path d="M18.7367 0H73.7355V35.4759H18.7367V0Z" fill="white"/>
</mask>
<g mask="url(#mask1_14_10580)">
<path d="M70.6866 16.6157C70.5266 17.9276 70.5357 18.883 70.1929 20.0074L70.1883 20.0257C70.1198 20.0531 70.0695 20.0714 70.0741 20.076C69.8958 20.1263 69.713 20.1766 69.5301 20.2131C68.0491 20.5194 66.5315 20.6154 65.0368 20.8394C62.3764 21.2462 59.5744 21.8633 57.266 23.3123C53.2892 25.8035 51.3511 30.1506 50.8574 34.6759C39.8138 34.6348 28.057 33.2269 19.82 25.1544C19.6235 24.967 19.4223 24.8207 19.2166 24.7019C19.2121 24.4916 19.1984 24.2814 19.1984 24.0711C19.1984 15.4638 26.2058 8.48841 34.8542 8.48841C38.7167 8.48841 42.2547 9.88257 44.9836 12.1955C46.5332 5.21097 52.7818 -0.0137329 60.2646 -0.0137329C65.887 -0.0137329 70.81 2.93459 73.5709 7.3685C72.7801 8.60725 72.1493 9.95114 71.7105 11.391C71.1894 13.096 70.906 14.8513 70.6866 16.6157Z" fill="#38B6FF"/>
</g>
<path d="M11.6699 63.6975C11.9898 61.4531 12.351 58.8887 13.9188 57.1197C17.082 53.5497 21.5433 51.8767 26.1646 51.4745C26.1281 52.4527 26.1098 53.4355 26.1098 54.4137C26.1052 57.938 31.595 57.938 31.5996 54.4137C31.6042 50.8665 31.5813 47.3468 32.9207 44.042C34.0177 41.3314 36.5089 39.7726 39.8321 39.5349C39.9143 39.5304 39.9921 39.5212 40.0698 39.5075C43.6672 39.96 47.3149 40.1292 50.9214 40.1429C50.9351 40.2526 50.9488 40.3623 50.9626 40.472C51.8265 46.4326 56.4569 49.5867 62.1022 50.5511C65.1419 51.0722 68.3371 51.0402 71.3266 51.7762C73.7309 52.3659 76.1079 53.536 77.3878 55.3096C78.9785 57.5128 79.7098 59.9035 80.103 62.6644C80.4458 65.0779 80.5372 67.624 80.4275 70.1335C77.6392 72.6978 73.9138 74.2703 69.8181 74.2703C64.1043 74.2703 59.1036 71.2214 56.3747 66.6686C53.5818 69.2513 49.8427 70.8283 45.7287 70.8283C43.7449 70.8283 41.8479 70.458 40.0972 69.7861C37.4871 74.7731 32.2533 78.1785 26.2149 78.1785C19.043 78.1785 13.0046 73.3789 11.1488 66.8286C11.3545 65.8093 11.519 64.7671 11.6699 63.6975Z" fill="#99DFEC"/>
<mask id="mask2_14_10580" style="mask-type:luminance" maskUnits="userSpaceOnUse" x="0" y="29" width="32" height="30">
<path d="M0 29.6249H31.6088V58.8796H0V29.6249Z" fill="white"/>
</mask>
<g mask="url(#mask2_14_10580)">
<path d="M15.3358 29.9403C15.9072 29.9403 16.474 29.9769 17.0271 30.0363C21.0908 33.6703 25.8035 36.0518 30.8317 37.5877C29.7255 38.6024 28.8021 39.8503 28.153 41.3542C27.4994 42.8535 27.056 44.3939 26.7497 45.9618C20.9125 46.2772 14.8787 48.2016 10.7557 52.4801C8.9958 54.304 7.78447 56.4158 7.07596 58.7653C2.63748 56.0181 -0.315414 51.1179 -0.315414 45.5276C-0.315414 36.9203 6.69199 29.9403 15.3358 29.9403Z" fill="#0292B7"/>
</g>
<path d="M51.1088 69.8821C51.1088 69.8821 48.8279 71.3814 43.4934 72.0213C38.1545 72.6658 36.2483 78.1694 35.6404 80.0709C35.0279 81.9679 32.363 91.7591 25.5018 97.6055C18.6407 103.447 19.0978 98.5882 16.506 97.2261C13.9142 95.8593 14.9016 93.7338 16.9631 91.9876C19.0201 90.2415 20.6977 83.6363 19.2486 80.2218C17.7996 76.8072 17.5756 76.053 15.8478 74.2657C14.1199 72.483 45.0019 60.0726 51.1088 69.8821Z" fill="#99DFEC"/>
</svg>
