<svg width="47" height="47" viewBox="0 0 47 47" fill="none" xmlns="http://www.w3.org/2000/svg">
  <path
    d="M24.0735 47.2122C17.8621 47.2051 11.9071 44.7345 7.51489 40.3423C3.12273 35.9502 0.652106 29.9952 0.64502 23.7837C0.651399 17.5721 3.1218 11.6166 7.51411 7.22432C11.9064 2.832 17.8619 0.361604 24.0735 0.355225C30.285 0.362311 36.24 2.83294 40.6321 7.2251C45.0243 11.6173 47.4949 17.5723 47.502 23.7837C47.4942 29.995 45.0234 35.9496 40.6314 40.3416C36.2393 44.7336 30.2847 47.2044 24.0735 47.2122ZM24.0735 9.78285C20.3758 9.78285 19.8818 9.79892 18.3878 9.86719C17.2441 9.89122 16.1127 10.1076 15.0408 10.5071C14.1211 10.8545 13.2879 11.3976 12.5989 12.0989C11.8971 12.7872 11.3542 13.6207 11.0084 14.5408C10.6078 15.6124 10.391 16.744 10.3672 17.8878C10.3002 19.339 10.2855 19.825 10.2855 23.5722C10.2855 27.3194 10.3002 27.7759 10.3672 29.258C10.391 30.4017 10.6078 31.5333 11.0084 32.6049C11.3547 33.5252 11.8974 34.359 12.5989 35.0481C13.2873 35.7499 14.1207 36.2927 15.0408 36.6386C16.1127 37.0384 17.2441 37.2551 18.3878 37.2799C19.8698 37.3468 20.3611 37.3629 24.0735 37.3629C27.7859 37.3629 28.2759 37.3468 29.7579 37.2799C30.9016 37.2552 32.033 37.0384 33.1049 36.6386C34.0249 36.2931 34.8583 35.7507 35.5468 35.0495C36.2482 34.3603 36.791 33.5266 37.1372 32.6062C37.5378 31.5346 37.7546 30.4031 37.7785 29.2593C37.8468 27.7786 37.8629 27.2873 37.8629 23.5735C37.8629 19.8598 37.8468 19.3685 37.7785 17.8891C37.7548 16.7453 37.538 15.6137 37.1372 14.5422C36.7916 13.6219 36.2488 12.7884 35.5468 12.1003C34.8577 11.399 34.0246 10.8559 33.1049 10.5085C32.033 10.1089 30.9016 9.89254 29.7579 9.86853C28.2639 9.79758 27.7699 9.78285 24.0735 9.78285ZM24.0735 34.8768C20.3745 34.8768 19.9407 34.8634 18.5016 34.7965C17.6273 34.7867 16.7613 34.6259 15.9418 34.3212C15.3424 34.1016 14.8005 33.7492 14.3567 33.2903C13.898 32.8462 13.5452 32.3044 13.3245 31.7052C13.0206 30.8855 12.8599 30.0197 12.8493 29.1455C12.7837 27.705 12.7703 27.2712 12.7703 23.5722C12.7703 19.8732 12.7837 19.4407 12.8493 17.9989C12.8604 17.1243 13.0211 16.2581 13.3245 15.4378C13.5459 14.839 13.8986 14.2973 14.3567 13.8527C14.8013 13.3945 15.3429 13.0418 15.9418 12.8205C16.7615 12.5164 17.6274 12.3556 18.5016 12.3453C19.9849 12.2783 20.4254 12.2649 24.0735 12.2649C27.7217 12.2649 28.1621 12.2783 29.6441 12.3453C30.5183 12.3557 31.3842 12.5164 32.2039 12.8205C32.803 13.042 33.3451 13.3947 33.7903 13.8527C34.2477 14.2977 34.5999 14.8393 34.8212 15.4378C35.1245 16.2581 35.2853 17.1243 35.2964 17.9989C35.3634 19.4715 35.3768 19.9107 35.3768 23.5722C35.3768 27.2337 35.3634 27.6742 35.2964 29.1455C35.2858 30.0197 35.125 30.8855 34.8212 31.7052C34.6006 32.3041 34.2483 32.8458 33.7903 33.2903C33.3457 33.7488 32.8035 34.1012 32.2039 34.3212C31.3844 34.6259 30.5184 34.7867 29.6441 34.7965C28.205 34.8621 27.7712 34.8768 24.0735 34.8768ZM24.0735 16.4901C22.1963 16.4936 20.397 17.2409 19.0696 18.5683C17.7422 19.8957 16.995 21.695 16.9914 23.5722C16.9953 25.4492 17.7427 27.2481 19.0701 28.5752C20.3974 29.9023 22.1965 30.6494 24.0735 30.653C25.9503 30.6491 27.749 29.9018 29.0761 28.5748C30.4031 27.2477 31.1504 25.4489 31.1543 23.5722C31.1511 21.695 30.4042 19.8955 29.077 18.5679C27.7499 17.2403 25.9507 16.4926 24.0735 16.4888V16.4901ZM31.4368 14.5582C30.998 14.5586 30.5773 14.7331 30.2671 15.0433C29.9568 15.3535 29.7824 15.7742 29.782 16.213C29.7827 16.6515 29.9574 17.0718 30.2676 17.3818C30.5778 17.6917 30.9982 17.866 31.4368 17.8664C31.8753 17.866 32.2958 17.6917 32.606 17.3818C32.9162 17.0718 33.0908 16.6515 33.0915 16.213C33.0915 15.774 32.9172 15.353 32.6069 15.0424C32.2966 14.7319 31.8757 14.5573 31.4368 14.5569V14.5582ZM24.0735 28.1682C22.8548 28.1671 21.6863 27.6826 20.8244 26.821C19.9625 25.9593 19.4776 24.7909 19.4762 23.5722C19.4776 22.3535 19.9625 21.1851 20.8244 20.3234C21.6863 19.4618 22.8548 18.9773 24.0735 18.9762C25.292 18.9776 26.4602 19.4623 27.3218 20.3239C28.1834 21.1855 28.6681 22.3537 28.6695 23.5722C28.6677 24.7905 28.1829 25.9583 27.3213 26.8196C26.4598 27.681 25.2918 28.1668 24.0735 28.1682Z"
    fill="white" />
</svg>
  