<svg width="138" height="115" viewBox="0 0 138 115" fill="none" xmlns="http://www.w3.org/2000/svg">
  <path
    d="M103.625 60.7968C111.156 62.7708 119.354 62.8176 127.099 62.927C129.24 62.9583 131.38 62.9739 133.521 63.0051C130.25 67.0468 125.245 69.6353 119.625 69.6353C119.406 69.6353 119.193 69.6249 118.979 69.6197C116.896 77.1249 109.99 82.6405 101.786 82.6405C100.401 82.6405 99.052 82.4843 97.7552 82.1822C98.3541 75.7083 97.9427 68.4635 95.1979 62.6458C94 60.0989 92.2708 58.026 90.1823 56.427C94.6927 57.7916 99.0677 59.6041 103.625 60.7968Z"
    fill="#38B6FF" />
  <mask id="mask0_0_1" style="mask-type:luminance" maskUnits="userSpaceOnUse" x="64" y="8"
    width="74" height="50">
    <path d="M64.0156 8.42188H137.557V57.7552H64.0156V8.42188Z" fill="white" />
  </mask>
  <g mask="url(#mask0_0_1)">
    <path
      d="M64.3646 38.9792C64.6771 37.349 65.0417 35.8698 65.8646 34.5208C66.2864 33.8333 66.3073 33.7604 66.7708 33.276C67.2344 32.8021 67.6146 32.4531 67.8594 32.2917C70.2552 30.6927 73.1146 30.1094 76.1927 29.6927C79.3594 29.2604 83.151 29.3073 85.1562 26.3802C86.9635 23.7448 86.5052 19.8542 87.1614 16.849C87.3594 15.9583 87.6042 15.125 87.9062 14.3333C91.0729 11.4427 95.2969 9.67188 99.9375 9.67188C109.786 9.67188 117.771 17.6198 117.771 27.4271C117.771 29.9115 117.255 32.276 116.333 34.4219C117.401 34.224 118.5 34.1146 119.625 34.1146C129.474 34.1146 137.458 42.0677 137.458 51.875C137.458 53.599 137.208 55.2656 136.75 56.8385C132.859 56.7604 128.964 56.7448 125.073 56.6615C117.849 56.5104 110.25 56.4219 103.307 54.2135C97.9844 52.5156 92.7812 50.3594 87.2864 49.2396C81.9167 48.151 76.1927 47.8385 71.7083 51.4635C71.3542 51.3906 71 51.3177 70.6458 51.2292C69.1146 50.8542 68.2187 50.5938 67.1198 49.9219C66.276 49.4062 65.6719 48.8698 65.2187 48.099C64.6406 47.1042 64.2187 45.8698 64.1198 44.4427C64 42.6302 64.0156 40.7656 64.3646 38.9792Z"
      fill="#0292B7" />
  </g>
  <mask id="mask1_0_1" style="mask-type:luminance" maskUnits="userSpaceOnUse" x="21" y="0"
    width="64" height="41">
    <path d="M21.3489 0H84.0155V40.4219H21.3489V0Z" fill="white" />
  </mask>
  <g mask="url(#mask1_0_1)">
    <path
      d="M80.5417 18.9323C80.3594 20.4271 80.3698 21.5156 79.9792 22.7969L79.974 22.8177C79.8958 22.849 79.8385 22.8698 79.8438 22.875C79.6406 22.9323 79.4323 22.9896 79.224 23.0312C77.5365 23.3802 75.8073 23.4896 74.1042 23.7448C71.0729 24.2083 67.8802 24.9115 65.25 26.5625C60.7188 29.401 58.5104 34.3542 57.9479 39.5104C45.3646 39.4635 31.9688 37.8594 22.5833 28.6615C22.3594 28.4479 22.1302 28.2812 21.8958 28.1458C21.8906 27.9062 21.875 27.6667 21.875 27.4271C21.875 17.6198 29.8594 9.67188 39.7135 9.67188C44.1146 9.67188 48.1458 11.2604 51.2552 13.8958C53.0208 5.9375 60.1406 -0.015625 68.6667 -0.015625C75.0729 -0.015625 80.6823 3.34375 83.8281 8.39583C82.9271 9.80729 82.2083 11.3385 81.7083 12.9792C81.1146 14.9219 80.7917 16.9219 80.5417 18.9323Z"
      fill="#38B6FF" />
  </g>
  <path
    d="M13.2969 72.5781C13.6615 70.0208 14.0729 67.099 15.8594 65.0833C19.4635 61.0156 24.5469 59.1094 29.8125 58.651C29.7708 59.7656 29.75 60.8854 29.75 62C29.7448 66.0156 36 66.0156 36.0052 62C36.0104 57.9583 35.9844 53.9479 37.5104 50.1823C38.7604 47.0938 41.599 45.3177 45.3854 45.0469C45.4792 45.0417 45.5677 45.0313 45.6562 45.0156C49.7552 45.5313 53.9115 45.724 58.0208 45.7396C58.0365 45.8646 58.0521 45.9896 58.0677 46.1146C59.0521 52.9063 64.3281 56.5 70.7604 57.599C74.224 58.1927 77.8646 58.1562 81.2708 58.9948C84.0104 59.6667 86.7188 61 88.1771 63.0208C89.9896 65.5312 90.8229 68.2552 91.2708 71.401C91.6615 74.151 91.7656 77.0521 91.6406 79.9115C88.4635 82.8333 84.2188 84.625 79.5521 84.625C73.0417 84.625 67.3438 81.151 64.2344 75.9635C61.0521 78.9062 56.7917 80.7031 52.1042 80.7031C49.8438 80.7031 47.6823 80.2812 45.6875 79.5156C42.7135 85.1979 36.75 89.0781 29.8698 89.0781C21.6979 89.0781 14.8177 83.6094 12.7031 76.1458C12.9375 74.9844 13.125 73.7969 13.2969 72.5781Z"
    fill="#99DFEC" />
  <mask id="mask2_0_1" style="mask-type:luminance" maskUnits="userSpaceOnUse" x="0" y="33"
    width="37" height="35">
    <path d="M0 33.7551H36.0156V67.0885H0V33.7551Z" fill="white" />
  </mask>
  <g mask="url(#mask2_0_1)">
    <path
      d="M17.474 34.1145C18.125 34.1145 18.7708 34.1562 19.401 34.2239C24.0313 38.3645 29.401 41.078 35.1302 42.828C33.8698 43.9843 32.8177 45.4062 32.0781 47.1197C31.3333 48.828 30.8281 50.5833 30.4792 52.3697C23.8281 52.7291 16.9531 54.9218 12.2552 59.7968C10.25 61.8749 8.86979 64.2812 8.0625 66.9583C3.00521 63.828 -0.359375 58.2447 -0.359375 51.8749C-0.359375 42.0676 7.625 34.1145 17.474 34.1145Z"
      fill="#0292B7" />
  </g>
  <path
    d="M58.2343 79.625C58.2343 79.625 55.6353 81.3333 49.5572 82.0625C43.4739 82.7969 41.302 89.0677 40.6093 91.2344C39.9114 93.3958 36.8749 104.552 29.0572 111.214C21.2395 117.87 21.7603 112.333 18.8072 110.781C15.8541 109.224 16.9791 106.802 19.3281 104.812C21.6718 102.823 23.5833 95.2969 21.9322 91.4062C20.2812 87.5156 20.026 86.6562 18.0572 84.6198C16.0885 82.5885 51.276 68.4479 58.2343 79.625Z"
    fill="#99DFEC" />
</svg>
  