<svg width="368" height="389" viewBox="0 0 368 389" fill="none" xmlns="http://www.w3.org/2000/svg">
<path d="M12.6604 346.329L13.2485 298.107L12.6604 243.123C12.6604 243.123 13.9345 243.025 16.4828 242.829C19.1291 242.633 22.4615 242.388 26.48 242.094C30.5965 241.8 34.958 241.555 39.5645 241.359C44.269 241.163 48.6795 241.065 52.796 241.065C63.4792 241.065 71.7122 244.103 77.4948 250.18C83.3755 256.256 86.3158 265.322 86.3158 277.378C86.3158 284.925 85.2867 291.148 83.2285 296.049C81.1702 300.949 78.3769 304.821 74.8485 307.663C71.3201 310.408 67.3507 312.368 62.9401 313.544C58.6277 314.622 54.1681 315.161 49.5616 315.161C45.8372 315.161 42.6028 315.112 39.8585 315.014C37.1142 314.818 35.742 314.72 35.742 314.72V346.329H12.6604ZM50.0027 296.784C52.3549 296.784 54.3152 296.588 55.8833 296.196C57.4515 295.706 58.5787 295.167 59.2647 294.579C60.3429 293.501 61.1269 291.54 61.617 288.698C62.1071 285.856 62.3521 281.69 62.3521 276.202C62.3521 272.183 62.1561 269.194 61.764 267.234C61.47 265.273 61.0779 263.95 60.5879 263.264C60.0978 262.48 59.6078 261.892 59.1177 261.5C58.5296 260.912 57.4025 260.422 55.7363 260.03C54.0701 259.638 51.7669 259.442 48.8265 259.442C46.5723 259.442 44.269 259.54 41.9167 259.736C39.6625 259.834 37.6043 259.981 35.742 260.177V295.755C35.742 295.755 37.1142 295.951 39.8585 296.343C42.6028 296.637 45.9842 296.784 50.0027 296.784ZM86.4192 346.329L114.793 242.976H144.785L173.159 346.329H149.342L141.403 313.397L154.194 323.394H105.384L118.175 313.397L110.236 346.329H86.4192ZM117.734 313.985L109.795 303.988H149.783L141.845 313.985L127.878 254.443L140.521 264.44H119.057L131.7 254.443L117.734 313.985ZM184.515 346.329L185.103 298.107L184.515 243.123C184.515 243.123 185.789 243.025 188.337 242.829C190.984 242.633 194.316 242.388 198.335 242.094C202.451 241.8 206.813 241.555 211.419 241.359C216.124 241.163 220.534 241.065 224.651 241.065C235.334 241.065 243.567 244.103 249.349 250.18C255.23 256.256 258.17 265.322 258.17 277.378C258.17 284.925 257.141 291.148 255.083 296.049C253.025 300.949 250.232 304.821 246.703 307.663C243.175 310.408 239.205 312.368 234.795 313.544C230.482 314.622 226.023 315.161 221.416 315.161C217.692 315.161 214.457 315.112 211.713 315.014C208.969 314.818 207.597 314.72 207.597 314.72V346.329H184.515ZM221.857 296.784C224.21 296.784 226.17 296.588 227.738 296.196C229.306 295.706 230.433 295.167 231.119 294.579C232.197 293.501 232.982 291.54 233.472 288.698C233.962 285.856 234.207 281.69 234.207 276.202C234.207 272.183 234.011 269.194 233.619 267.234C233.325 265.273 232.933 263.95 232.442 263.264C231.952 262.48 231.462 261.892 230.972 261.5C230.384 260.912 229.257 260.422 227.591 260.03C225.925 259.638 223.621 259.442 220.681 259.442C218.427 259.442 216.124 259.54 213.771 259.736C211.517 259.834 209.459 259.981 207.597 260.177V295.755C207.597 295.755 208.969 295.951 211.713 296.343C214.457 296.637 217.839 296.784 221.857 296.784ZM315.08 348.24C309.101 348.24 303.416 347.456 298.026 345.888C292.733 344.319 288.029 341.575 283.912 337.655C279.894 333.734 276.708 328.295 274.356 321.336C272.102 314.279 270.975 305.311 270.975 294.432C270.975 283.552 272.102 274.633 274.356 267.675C276.708 260.716 279.894 255.325 283.912 251.503C288.029 247.582 292.733 244.887 298.026 243.417C303.416 241.849 309.101 241.065 315.08 241.065C321.156 241.065 326.841 241.849 332.134 243.417C337.426 244.887 342.082 247.582 346.1 251.503C350.217 255.325 353.402 260.716 355.656 267.675C358.009 274.633 359.185 283.552 359.185 294.432C359.185 305.311 358.009 314.279 355.656 321.336C353.402 328.295 350.217 333.734 346.1 337.655C342.082 341.575 337.426 344.319 332.134 345.888C326.841 347.456 321.156 348.24 315.08 348.24ZM315.08 327.952C318.608 327.952 321.597 327.559 324.048 326.775C326.596 325.893 328.703 324.325 330.369 322.071C332.036 319.719 333.261 316.337 334.045 311.927C334.829 307.516 335.221 301.783 335.221 294.726C335.221 287.571 334.829 281.788 334.045 277.378C333.261 272.967 332.036 269.635 330.369 267.381C328.801 265.028 326.743 263.46 324.195 262.676C321.646 261.794 318.608 261.353 315.08 261.353C311.551 261.353 308.513 261.794 305.965 262.676C303.416 263.46 301.309 265.028 299.643 267.381C298.075 269.635 296.899 272.967 296.115 277.378C295.33 281.788 294.938 287.571 294.938 294.726C294.938 301.881 295.33 307.663 296.115 312.074C296.899 316.386 298.124 319.719 299.79 322.071C301.456 324.325 303.514 325.893 305.965 326.775C308.513 327.559 311.551 327.952 315.08 327.952Z" fill="#38B6FF"/>
<path d="M244.184 112.557C258.025 116.184 273.09 116.27 287.323 116.471C291.256 116.529 295.19 116.557 299.124 116.615C293.113 124.042 283.915 128.799 273.588 128.799C273.186 128.799 272.793 128.78 272.401 128.77C268.572 142.563 255.881 152.699 240.806 152.699C238.26 152.699 235.781 152.412 233.397 151.857C234.498 139.959 233.742 126.646 228.698 115.954C226.496 111.274 223.319 107.465 219.48 104.526C227.769 107.034 235.809 110.365 244.184 112.557Z" fill="#38B6FF"/>
<mask id="mask0_1192_3942" style="mask-type:luminance" maskUnits="userSpaceOnUse" x="171" y="16" width="136" height="91">
<path d="M171.394 16.3066H306.542V106.967H171.394V16.3066Z" fill="white"/>
</mask>
<g mask="url(#mask0_1192_3942)">
<path d="M172.035 72.4619C172.609 69.4661 173.279 66.7478 174.791 64.2688C175.567 63.0054 175.605 62.8714 176.457 61.9813C177.309 61.1103 178.007 60.469 178.457 60.1723C182.86 57.2338 188.115 56.1618 193.772 55.3961C199.591 54.6017 206.559 54.6878 210.244 49.3087C213.565 44.4656 212.723 37.3157 213.929 31.793C214.293 30.1563 214.743 28.6249 215.298 27.17C221.117 21.8579 228.879 18.6036 237.408 18.6036C255.507 18.6036 270.18 33.2096 270.18 51.2326C270.18 55.7981 269.233 60.1435 267.538 64.087C269.501 63.7232 271.52 63.5223 273.588 63.5223C291.687 63.5223 306.36 78.1378 306.36 96.1608C306.36 99.3289 305.901 102.392 305.058 105.282C297.908 105.139 290.749 105.11 283.599 104.957C270.324 104.679 256.359 104.517 243.6 100.458C233.818 97.338 224.256 93.3755 214.159 91.3176C204.291 89.3172 193.772 88.7429 185.531 95.4046C184.88 95.2706 184.229 95.1366 183.578 94.9739C180.764 94.2848 179.118 93.8062 177.098 92.5715C175.548 91.6239 174.437 90.638 173.605 89.2215C172.542 87.3933 171.767 85.1249 171.585 82.5023C171.365 79.1715 171.394 75.7449 172.035 72.4619Z" fill="#0292B7"/>
</g>
<mask id="mask1_1192_3942" style="mask-type:luminance" maskUnits="userSpaceOnUse" x="92" y="0" width="117" height="76">
<path d="M92.9854 0.829712H208.149V75.1134H92.9854V0.829712Z" fill="white"/>
</mask>
<g mask="url(#mask1_1192_3942)">
<path d="M201.764 35.6218C201.429 38.3688 201.449 40.3692 200.731 42.7238L200.721 42.7621C200.578 42.8195 200.472 42.8578 200.482 42.8674C200.109 42.9726 199.726 43.0779 199.343 43.1545C196.242 43.7958 193.064 43.9968 189.934 44.4658C184.364 45.3176 178.496 46.6098 173.663 49.6439C165.336 54.8603 161.277 63.9627 160.244 73.4384C137.119 73.3523 112.502 70.4043 95.2539 53.5012C94.8423 53.1088 94.4211 52.8025 93.9904 52.5536C93.9809 52.1133 93.9521 51.6731 93.9521 51.2328C93.9521 33.2098 108.625 18.6038 126.734 18.6038C134.822 18.6038 142.23 21.5231 147.944 26.3663C151.189 11.7411 164.273 0.801025 179.942 0.801025C191.714 0.801025 202.023 6.97458 207.804 16.2588C206.148 18.8527 204.827 21.6667 203.908 24.6817C202.817 28.2518 202.224 31.9272 201.764 35.6218Z" fill="#38B6FF"/>
</g>
<path d="M78.1878 134.207C78.8578 129.508 79.614 124.138 82.897 120.434C89.5204 112.959 98.8621 109.456 108.539 108.613C108.462 110.662 108.424 112.719 108.424 114.768C108.414 122.147 119.91 122.147 119.919 114.768C119.929 107.34 119.881 99.9704 122.685 93.0503C124.982 87.3744 130.199 84.1106 137.157 83.6128C137.33 83.6033 137.492 83.5841 137.655 83.5554C145.188 84.503 152.826 84.8571 160.377 84.8858C160.406 85.1156 160.435 85.3453 160.464 85.575C162.273 98.0561 171.968 104.66 183.789 106.68C190.154 107.771 196.845 107.704 203.104 109.245C208.139 110.48 213.116 112.93 215.796 116.644C219.127 121.257 220.658 126.263 221.481 132.044C222.199 137.098 222.391 142.429 222.161 147.684C216.322 153.053 208.522 156.346 199.946 156.346C187.981 156.346 177.51 149.962 171.796 140.429C165.948 145.837 158.119 149.139 149.504 149.139C145.35 149.139 141.378 148.363 137.712 146.956C132.247 157.399 121.288 164.53 108.644 164.53C93.6265 164.53 80.9827 154.48 77.0967 140.764C77.5274 138.629 77.872 136.447 78.1878 134.207Z" fill="#99DFEC"/>
<mask id="mask2_1192_3942" style="mask-type:luminance" maskUnits="userSpaceOnUse" x="53" y="62" width="67" height="63">
<path d="M53.752 62.8618H119.938V124.119H53.752V62.8618Z" fill="white"/>
</mask>
<g mask="url(#mask2_1192_3942)">
<path d="M85.8643 63.5221C87.0607 63.5221 88.2476 63.5987 89.4057 63.7231C97.9147 71.3324 107.783 76.3191 118.311 79.5351C115.995 81.6599 114.062 84.2729 112.703 87.4219C111.334 90.5613 110.405 93.7869 109.764 97.0699C97.5414 97.7303 84.9072 101.76 76.2737 110.719C72.5888 114.538 70.0523 118.96 68.5688 123.879C59.2749 118.127 53.0918 107.866 53.0918 96.1606C53.0918 78.1376 67.7648 63.5221 85.8643 63.5221Z" fill="#0292B7"/>
</g>
<path d="M160.769 147.157C160.769 147.157 155.993 150.297 144.823 151.637C133.644 152.986 129.653 164.51 128.38 168.492C127.097 172.464 121.517 192.966 107.15 205.208C92.7836 217.44 93.7407 207.266 88.3138 204.413C82.8868 201.552 84.9542 197.101 89.2709 193.445C93.578 189.788 97.0907 175.958 94.0566 168.808C91.0225 161.658 90.5535 160.079 86.9355 156.336C83.3175 152.603 147.982 126.617 160.769 147.157Z" fill="#99DFEC"/>
</svg>
