<svg width="475" height="660" viewBox="0 0 475 660" fill="none" xmlns="http://www.w3.org/2000/svg">
  <path
    d="M349.39 369.295L349.295 549.239C349.295 549.239 348.553 553.177 354.788 553.128C361.015 553.09 360.601 549.596 360.601 549.596L358.863 369.607C358.863 369.607 360.178 365.192 353.784 365.724C347.397 366.259 349.39 369.295 349.39 369.295Z"
    fill="#423A3E" />
  <path
    d="M164.626 369.495L164.722 549.431C164.722 549.431 165.455 553.376 159.228 553.327C153.001 553.28 153.416 549.796 153.416 549.796L155.154 369.806C155.154 369.806 153.838 365.382 160.233 365.924C166.619 366.458 164.626 369.495 164.626 369.495Z"
    fill="#423A3E" />
  <path d="M347.07 363.94H336.792V329.058H347.07V363.94Z" fill="#423A3E" />
  <path d="M177.286 363.94H167.018V329.058H177.286V363.94Z" fill="#423A3E" />
  <path
    d="M354.771 359.547L159.162 359.524C159.162 359.524 130.921 373.831 142.092 394.581C149.411 408.178 166.753 426.408 258.262 426.384C346.949 426.368 362.545 409.707 371.395 393.893C381.952 375.049 354.771 359.547 354.771 359.547Z"
    fill="#554B50" />
  <path
    d="M354.771 359.525C354.771 359.525 360.304 359.73 362.13 359.69C367.512 359.547 376.211 366.157 376.785 374.359C380.501 428.131 389.064 601.672 389.064 601.672C389.064 601.672 389.789 606.056 381.856 606.374C373.923 606.685 374.648 601.672 374.648 601.672C374.648 601.672 369.569 443.528 365.83 375.651C365.24 364.871 354.771 359.525 354.771 359.525Z"
    fill="#423A3E" />
  <path
    d="M159.162 359.525C159.162 359.525 153.637 359.73 151.803 359.69C146.421 359.547 137.722 366.157 137.156 374.359C133.441 428.131 124.877 601.672 124.877 601.672C124.877 601.672 124.152 606.056 132.085 606.374C140.011 606.685 139.293 601.672 139.293 601.672C139.293 601.672 144.364 443.528 148.103 375.651C148.701 364.871 159.162 359.525 159.162 359.525Z"
    fill="#423A3E" />
  <path
    d="M154.444 339.373V321.414C154.444 247.35 176.538 209.893 218.326 209.893H294.255C336.043 209.893 360.011 247.35 360.011 321.414V339.373H154.444Z"
    fill="#554B50" />
  <path
    d="M192.135 577.719C192.135 577.719 198.72 607.968 195.491 617.328C193.801 622.228 192.278 637.005 184.775 641.838C177.272 646.661 144.127 646.661 144.127 641.838C144.127 623.219 148.361 612.184 155.234 594.953C162.115 577.719 162.115 577.719 162.115 577.719H192.135Z"
    fill="#102B56" />
  <path
    d="M287.782 577.719C287.782 577.719 294.368 607.968 291.139 617.328C289.448 622.228 287.925 637.005 280.422 641.838C272.92 646.661 239.775 646.661 239.775 641.838C239.775 623.219 244.008 612.184 250.881 594.953C257.762 577.719 257.762 577.719 257.762 577.719H287.782Z"
    fill="#102B56" />
  <path
    d="M261.86 321.669C261.86 321.669 225.191 341.095 226.698 369.806C228.212 398.517 361.797 416.626 365.632 362.719C369.945 302.222 295.922 314.781 261.86 321.669Z"
    fill="#487084" />
  <path
    d="M235.652 3.73601C235.652 3.73601 194.622 -2.09868 192.597 45.502C190.571 93.1034 175.374 108.799 174.864 133.11C174.362 157.413 178.412 159.446 187.023 159.446C195.634 159.446 244.582 153.875 239.36 106.775C234.129 59.6814 235.652 3.73601 235.652 3.73601Z"
    fill="#4A2E2A" />
  <path
    d="M180.046 150.048C180.046 150.048 106.588 249.255 110.575 271.197C113.437 286.909 133.394 291.875 151.629 267.573C169.864 243.258 207.282 196.112 207.282 196.112L180.046 150.048Z"
    fill="#FF9500" />
  <path
    d="M163.198 252.173C172.096 240.631 182.246 227.653 190.554 217.101C189.9 214.015 189.271 210.858 188.649 207.644C180.811 217.602 171.028 230.085 162.169 241.546L163.198 252.173Z"
    fill="#FF9500" />
  <path
    d="M288.978 56.6152C288.978 56.6152 329.873 157.923 318.224 166.532C306.575 175.142 285.151 152.864 283.955 137.669C282.759 122.478 288.978 56.6152 288.978 56.6152Z"
    fill="#4A2E2A" />
  <path
    d="M250.999 130.464C250.999 130.464 305.129 113.174 318.222 156.4C331.314 199.627 323.739 248.928 345.522 359.54C331.003 354.471 248.392 320.196 237.245 324.244C226.106 328.301 192.85 267.554 180.045 150.048C206.245 128.767 210.63 130.862 250.999 130.464Z"
    fill="#FF9500" />
  <path
    d="M333.379 282.796H333.626C333.036 277.742 332.502 272.872 332.016 268.161C331.904 267.947 331.801 267.722 331.689 267.498C332.191 272.418 332.749 277.512 333.379 282.796Z"
    fill="#52484D" />
  <path
    d="M283.874 127.664C283.874 127.649 283.874 127.643 283.874 127.628C280.972 127.235 278.086 127.067 275.303 127.051C278.086 127.076 280.972 127.26 283.874 127.664Z"
    fill="#F6F6F6" />
  <path
    d="M293.64 129.978C293.68 129.978 293.752 129.969 293.863 129.962C290.586 128.823 287.214 128.082 283.873 127.628C283.873 127.643 283.873 127.649 283.873 127.664C287.142 128.12 290.435 128.86 293.64 129.978Z"
    fill="#472C29" />
  <path
    d="M209.564 282.796H225.112C218.821 278.437 211.709 272.944 203.672 266.113C205.625 272.132 207.595 277.695 209.564 282.796ZM277.265 282.796H333.381C332.751 277.512 332.193 272.418 331.691 267.498C322.689 248.857 316.829 221.787 312.069 196.112C305.85 162.609 299.535 144.055 296.138 135.635C294.559 131.715 293.611 129.979 293.611 129.979C293.611 129.979 293.619 129.979 293.642 129.979C290.437 128.86 287.144 128.12 283.875 127.665C280.973 127.26 278.087 127.076 275.304 127.052C275.2 127.052 275.097 127.052 275.001 127.052C271.931 127.052 268.989 127.244 266.294 127.531C266.047 128.303 265.752 129.028 265.425 129.723C294.248 152.885 315.704 230.219 277.265 282.796Z"
    fill="#E48D12" />
  <path
    d="M227.55 107.595C227.55 107.595 230.588 124.812 224.504 133.422C218.428 142.031 263.007 150.126 267.057 124.302C271.108 98.4774 263.007 83.2833 263.007 83.2833L227.55 107.595Z"
    fill="#F4BEAB" />
  <path
    d="M293.609 129.979C293.609 129.979 332.327 127.475 338.403 141.776C344.486 156.083 388.81 282.995 365.815 289.985C334.336 299.55 321.18 245.261 312.067 196.112C302.946 146.963 293.609 129.979 293.609 129.979Z"
    fill="#E48D12" />
  <path
    d="M314.843 130.648C309.429 129.978 304.119 129.81 300.172 129.81C304.119 129.81 309.421 129.978 314.843 130.648Z"
    fill="#452B27" />
  <path
    d="M296.138 135.636C294.551 131.7 293.61 129.979 293.61 129.979C293.61 129.979 294.559 131.715 296.138 135.636Z"
    fill="#58B6CB" />
  <path
    d="M365.448 282.796H371.34C372.05 280.087 372.376 276.715 372.376 272.832C372.376 236.078 343.25 153.171 338.402 141.776C335.476 134.879 324.951 131.89 314.841 130.648C309.419 129.979 304.117 129.81 300.171 129.81C299.07 129.81 298.073 129.826 297.204 129.841C294.964 129.891 293.608 129.979 293.608 129.979C293.608 129.979 294.549 131.7 296.136 135.636C308 135.869 327.479 137.772 331.641 147.577C336.68 159.43 367.983 248.642 365.448 282.796Z"
    fill="#FF9500" />
  <path
    d="M203.096 318.633C203.096 318.633 129.821 348.948 134.725 378.646C137.332 394.454 213.549 401.873 253.75 401.481C264.354 401.372 270.677 402.169 274.879 402.966C283.315 404.551 283.235 406.145 292.045 400.509C296.439 397.688 315.455 388.012 316.205 384.456C325.725 339.398 314.769 323.472 310.536 321.756C276.211 307.807 203.096 318.633 203.096 318.633Z"
    fill="#487084" />
  <path
    d="M226.697 376.357C225.836 423.155 244.852 587.539 244.852 587.539C244.852 587.539 293.018 600.629 292.707 581.315C290.945 470.127 301.231 435.239 299.262 376.357C298.616 356.925 227.239 347.328 226.697 376.357Z"
    fill="#577787" />
  <path
    d="M289.749 588.121C290.036 587.876 290.299 587.62 290.546 587.34C290.299 587.611 290.036 587.866 289.749 588.106C289.749 588.113 289.749 588.113 289.749 588.121Z"
    fill="#FBEDE6" />
  <path
    d="M279.4 591.715C283.665 591.26 287.357 590.186 289.749 588.121C289.749 588.113 289.749 588.113 289.749 588.106C287.341 590.14 283.65 591.198 279.4 591.628C279.4 591.662 279.4 591.684 279.4 591.715Z"
    fill="#10284E" />
  <path
    d="M226.778 374.629C226.794 374.62 226.81 374.614 226.826 374.614C226.905 373.951 227.025 373.312 227.184 372.693H227.16C226.993 373.312 226.865 373.96 226.778 374.629Z"
    fill="#A6211A" />
  <path
    d="M279.402 591.628C283.651 591.198 287.343 590.14 289.751 588.106C290.038 587.866 290.301 587.611 290.548 587.34C291.888 585.849 292.645 583.922 292.605 581.459C290.835 470.271 301.129 435.382 299.159 376.5C299.112 375.187 298.745 373.91 298.099 372.693H255.163C271.157 374.844 285.709 381.579 286.004 390.306C287.949 448.534 277.919 483.345 279.402 591.628ZM226.826 374.614C229.234 373.761 231.873 373.132 234.656 372.693H227.185C227.025 373.312 226.906 373.95 226.826 374.614Z"
    fill="#487084" />
  <path
    d="M134.95 376.357C131.465 393.193 153.097 587.539 153.097 587.539C153.097 587.539 201.263 600.629 200.96 581.315C199.19 470.127 210.345 445.396 207.506 376.357C206.709 356.934 142.125 341.647 134.95 376.357Z"
    fill="#577787" />
  <path
    d="M194.461 590.298C195.506 589.85 196.438 589.317 197.244 588.679C196.415 589.252 195.474 589.732 194.437 590.14C194.445 590.192 194.453 590.242 194.461 590.298Z"
    fill="#FBEDE6" />
  <path
    d="M191.041 591.397C192.268 591.11 193.417 590.743 194.461 590.298C194.453 590.241 194.445 590.192 194.437 590.139C193.393 590.544 192.253 590.865 191.033 591.117C191.041 591.213 191.041 591.301 191.041 591.397Z"
    fill="#10284E" />
  <path
    d="M191.033 591.117C192.253 590.865 193.393 590.544 194.438 590.139C195.474 589.731 196.415 589.252 197.244 588.679C199.269 587.079 200.457 584.846 200.41 581.776C198.64 470.591 209.802 445.866 206.964 376.82C206.908 375.417 206.517 374.037 205.839 372.692H184.495C192.109 376.479 197.38 381.609 197.603 387.071C200.426 455.917 189.343 480.729 191.033 591.117Z"
    fill="#487084" />
  <path
    d="M228.308 117.112C228.3 114.186 228.069 111.589 227.862 109.852C227.694 112.305 227.726 114.967 228.308 117.112ZM228.125 107.196L234.998 102.485L228.883 102.765C228.883 102.765 228.452 104.64 228.125 107.196Z"
    fill="#492B26" />
  <path
    d="M232.79 121.251C232.958 121.251 233.125 121.241 233.301 121.225C242.143 120.444 256.973 101.466 256.973 101.466L234.999 102.485L228.126 107.196C228.022 108.027 227.927 108.918 227.863 109.852C228.07 111.589 228.301 114.185 228.309 117.112C228.955 119.52 230.295 121.251 232.79 121.251Z"
    fill="#F0B09A" />
  <path
    d="M198.88 48.0924L200.873 59.1712C200.873 59.1712 198.043 63.9538 196.233 69.5334C194.718 74.2035 196.623 79.3288 198.649 83.8029C203.241 93.9658 213.583 115.176 220.121 115.942C228.732 116.954 261.653 102.214 265.712 94.6194C269.762 87.0287 301.671 48.0271 270.265 18.1553C246.544 -4.4127 218.773 4.50832 205.298 21.3588C199.318 28.8347 197.19 38.6804 198.88 48.0924Z"
    fill="#F4CFC1" />
  <path
    d="M207.282 19.0459C207.282 19.0459 233.625 8.86703 245.785 55.1238C257.944 101.38 251.86 169.568 256.589 177.676C261.317 185.775 291.408 157.867 299.517 136.937C307.618 116.005 295.084 10.191 252.873 4.63611C210.662 -0.921997 207.282 19.0459 207.282 19.0459Z"
    fill="#4A2E2A" />
  <path
    d="M292.811 76.206C291.057 86.9508 281.034 94.3861 270.438 92.8078C259.833 91.232 252.665 81.2436 254.42 70.4988C256.182 59.7469 266.196 52.318 276.8 53.897C287.397 55.4721 294.565 65.4605 292.811 76.206Z"
    fill="#38B6FF" />
  <path
    d="M213.032 7.62508C213.032 7.62508 250.586 8.75533 261.669 64.1531C274.952 61.7961 277.775 58.4707 277.775 58.4707C277.775 58.4707 247.373 -9.83361 222.057 1.20769C211.716 5.71922 213.032 7.62508 213.032 7.62508Z"
    fill="#38B6FF" />
  <path
    d="M291.76 75.664C290.452 83.6596 283.675 89.2926 276.619 88.2429C269.562 87.1907 264.906 79.8551 266.214 71.8627C267.521 63.8662 274.298 58.2308 281.355 59.283C288.411 60.3359 293.068 67.6684 291.76 75.664Z"
    fill="white" />
  <path
    d="M398.378 603.472C398.378 603.472 393.1 608.852 383.939 608.852C373.39 608.852 369.499 603.472 369.499 603.472V306.253H398.378V603.472Z"
    fill="#8D8E90" />
  <path
    d="M117.568 603.472C117.568 603.472 112.298 608.852 103.129 608.852C92.5802 608.852 88.6892 603.472 88.6892 603.472V306.253H117.568V603.472Z"
    fill="#8D8E90" />
  <path
    d="M94.1333 653.147C94.1333 653.147 88.6319 659.253 79.0879 659.253C68.0927 659.253 64.0422 653.147 64.0422 653.147V315.89H94.1333V653.147Z"
    fill="#CBCCCE" />
  <path
    d="M423.589 653.147C423.589 653.147 418.095 659.253 408.543 659.253C397.548 659.253 393.497 653.147 393.497 653.147V315.89H423.589V653.147Z"
    fill="#CBCCCE" />
  <path d="M474.5 372.692H0V343.639H474.5V372.692Z" fill="#AAABAC" />
  <path d="M0.00250244 343.639L71.6502 282.796H439.242L474.5 343.639H0.00250244Z" fill="#CBCCCE" />
  <path d="M173.453 341.428L265.496 296.832L136.561 285.33L173.453 341.428Z" fill="#383838" />
  <path d="M33.4107 214.71L44.9719 322.267L172.13 344.402L160.568 224.96L33.4107 214.71Z"
    fill="#292929" />
  <path d="M33.4095 214.71L40.0753 211.593L165.901 221.373L160.567 224.96L33.4095 214.71Z"
    fill="#555454" />
  <path
    d="M100.146 280.389C100.633 280.389 101.127 280.333 101.613 280.214C102.084 280.093 102.522 279.925 102.937 279.709L92.7309 270.17C92.5076 271.374 92.5396 272.679 92.8665 273.996C93.8074 277.788 96.8931 280.389 100.146 280.389Z"
    fill="#818282" />
  <path
    d="M172.13 344.402L160.568 224.96L33.4107 214.71L92.7318 270.17C93.2341 267.355 95.076 265.069 97.6992 264.416C98.1856 264.295 98.6719 264.238 99.1583 264.238C102.411 264.238 105.497 266.838 106.438 270.631C107.387 274.451 105.848 278.213 102.938 279.71L172.13 344.402Z"
    fill="#262626" />
  <path
    d="M102.935 279.71C105.845 278.213 107.384 274.451 106.435 270.631C105.495 266.838 102.409 264.238 99.1558 264.238C98.6694 264.238 98.1831 264.295 97.6967 264.416C95.0735 265.069 93.2316 267.355 92.7293 270.17L102.935 279.71Z"
    fill="#787A7A" />
  <path
    d="M160.568 224.96L165.902 221.373L176.57 337.826L265.496 296.77V301.823L172.129 344.402L160.568 224.96Z"
    fill="#262626" />
  <path
    d="M284.096 212.907C284.096 212.907 268.588 180.783 265.47 178.162C262.361 175.547 226.377 165.225 220.445 165.959C214.513 166.691 216.012 200.362 226.202 204.675C236.392 208.987 248.742 213.25 254.22 215.584C259.698 217.929 266.164 234.254 277.271 234.945C288.377 235.634 288.904 222.681 284.096 212.907Z"
    fill="#F4CFC1" />
  <path
    d="M370.718 276.123C352.507 253.288 275.979 200.562 266.698 194.365C257.417 188.181 244.309 207.358 271.969 232.88C299.628 258.403 335.739 314.582 356.773 307.075C377.798 299.566 379.01 286.519 370.718 276.123Z"
    fill="#F4CFC1" />
  <path
    d="M286.15 71.5368C287.34 71.5572 288.558 71.2675 289.712 71.0034C290.031 70.9306 290.349 70.8554 290.668 70.7826C290.329 71.5009 289.679 72.0663 288.845 72.2697C288.813 72.2776 288.781 72.2838 288.749 72.2908C288.711 73.4802 287.886 74.5489 286.668 74.8458C286.462 74.896 286.256 74.9216 286.053 74.9237C285.908 73.941 285.584 72.8805 284.966 72.1162C284.696 71.7815 284.365 71.5364 283.997 71.3747C284.716 71.414 285.431 71.5247 286.15 71.5368Z"
    fill="#38B6FF" />
  <mask id="mask0_514_2022" style="mask-type:luminance" maskUnits="userSpaceOnUse" x="278" y="62"
    width="14" height="11">
    <path d="M278.375 65.1958L289.292 62.5342L291.077 69.8572L280.161 72.5189L278.375 65.1958Z"
      fill="white" />
  </mask>
  <g mask="url(#mask0_514_2022)">
    <path
      d="M279.533 69.7191C279.52 69.4658 279.521 69.233 279.594 69.003C279.632 68.8857 279.632 68.8741 279.684 68.7854C279.735 68.6983 279.779 68.6328 279.81 68.5999C280.107 68.2759 280.511 68.0858 280.953 67.9125C281.407 67.7338 281.972 67.6035 282.163 67.0964C282.336 66.6398 282.127 66.0789 282.116 65.609C282.113 65.4697 282.119 65.3371 282.136 65.2086C282.501 64.665 283.064 64.2492 283.753 64.0813C285.215 63.7248 286.688 64.6156 287.043 66.0714C287.132 66.4402 287.141 66.8099 287.082 67.1618C287.234 67.0937 287.393 67.0377 287.56 66.997C289.022 66.6406 290.495 67.5321 290.85 68.9879C290.912 69.2438 290.935 69.5003 290.924 69.7504C290.344 69.8796 289.765 70.0183 289.184 70.1467C288.107 70.3857 286.975 70.6476 285.865 70.5711C285.013 70.5117 284.163 70.3799 283.307 70.4126C282.47 70.4453 281.609 70.6061 281.075 71.3065C281.02 71.3085 280.964 71.3105 280.909 71.3102C280.668 71.3099 280.525 71.3037 280.338 71.2437C280.194 71.1977 280.085 71.14 279.99 71.0419C279.868 70.9152 279.761 70.7472 279.694 70.539C279.611 70.2743 279.546 69.9969 279.533 69.7191Z"
      fill="#0292B7" />
  </g>
  <mask id="mask1_514_2022" style="mask-type:luminance" maskUnits="userSpaceOnUse" x="271" y="63"
    width="12" height="9">
    <path d="M271.737 65.4898L281.039 63.2218L282.502 69.222L273.2 71.4901L271.737 65.4898Z"
      fill="white" />
  </mask>
  <g mask="url(#mask1_514_2022)">
    <path
      d="M281.209 66.1578C281.236 66.3863 281.277 66.5475 281.265 66.7519L281.265 66.7551C281.255 66.7626 281.247 66.7678 281.248 66.7684C281.22 66.7842 281.191 66.8003 281.161 66.814C280.924 66.9269 280.671 67.0057 280.427 67.1052C279.994 67.2837 279.546 67.5036 279.215 67.8439C278.645 68.4293 278.496 69.2444 278.6 70.0302C276.73 70.4786 274.683 70.7253 272.957 69.6997C272.916 69.6761 272.876 69.6596 272.837 69.648C272.827 69.6127 272.816 69.5777 272.808 69.5421C272.453 68.0863 273.35 66.6175 274.813 66.2609C275.466 66.1016 276.122 66.1915 276.679 66.4702C276.653 65.2249 277.495 64.0836 278.76 63.775C279.711 63.5431 280.665 63.8388 281.315 64.4749C281.232 64.717 281.181 64.9703 281.166 65.2319C281.149 65.5418 281.173 65.8504 281.209 66.1578Z"
      fill="#38B6FF" />
  </g>
  <path
    d="M273.168 76.5548C273.13 76.162 273.085 75.7134 273.278 75.3495C273.665 74.6153 274.351 74.1483 275.116 73.8897C275.15 74.0567 275.188 74.2236 275.228 74.3891C275.372 74.9854 276.301 74.759 276.156 74.1627C276.011 73.5626 275.862 72.9682 275.952 72.354C276.026 71.8503 276.383 71.4839 276.935 71.3067C276.949 71.3025 276.962 71.2978 276.974 71.2922C277.601 71.2204 278.225 71.0986 278.836 70.9522C278.843 70.9702 278.85 70.9882 278.856 71.0062C279.248 71.9787 280.162 72.3212 281.156 72.2515C281.692 72.2143 282.231 72.0772 282.767 72.0783C283.198 72.0789 283.648 72.1788 283.938 72.426C284.298 72.7331 284.52 73.1073 284.7 73.558C284.858 73.9521 284.978 74.3789 285.063 74.8079C284.697 75.3566 284.132 75.7762 283.439 75.9451C282.473 76.1807 281.501 75.8713 280.852 75.2138C280.486 75.7658 279.919 76.1867 279.223 76.3563C278.888 76.4382 278.551 76.4538 278.228 76.4123C277.992 77.3634 277.247 78.1552 276.226 78.4042C275.013 78.7 273.793 78.1372 273.209 77.1059C273.202 76.925 273.187 76.7419 273.168 76.5548Z"
    fill="#99DFEC" />
  <mask id="mask2_514_2022" style="mask-type:luminance" maskUnits="userSpaceOnUse" x="269" y="69"
    width="8" height="8">
    <path d="M269.79 71.2731L275.136 69.9697L276.342 74.9177L270.996 76.2212L269.79 71.2731Z"
      fill="white" />
  </mask>
  <g mask="url(#mask2_514_2022)">
    <path
      d="M272.396 70.694C272.493 70.6705 272.59 70.6533 272.686 70.6405C273.524 71.0876 274.419 71.296 275.333 71.3485C275.187 71.5657 275.083 71.8149 275.035 72.096C274.986 72.3765 274.975 72.6554 274.988 72.9332C274.013 73.2272 273.072 73.8015 272.551 74.6952C272.329 75.0763 272.211 75.4834 272.188 75.91C271.324 75.6284 270.623 74.9214 270.392 73.9758C270.037 72.52 270.934 71.0505 272.396 70.694Z"
      fill="#0292B7" />
  </g>
  <path
    d="M280.094 75.9744C280.094 75.9744 279.77 76.3221 278.894 76.6503C278.018 76.9795 277.922 77.9889 277.898 78.3356C277.873 78.6817 277.826 80.4476 276.906 81.7194C275.987 82.9904 275.864 82.1497 275.369 82.0262C274.874 81.9019 274.954 81.5017 275.23 81.1214C275.506 80.7412 275.518 79.5549 275.132 79.0371C274.746 78.5193 274.677 78.401 274.311 78.1699C273.945 77.9397 278.657 74.5671 280.094 75.9744Z"
    fill="#99DFEC" />
</svg>