<svg width="47" height="48" viewBox="0 0 47 48" fill="none" xmlns="http://www.w3.org/2000/svg">
  <path d="M23.4656 0.685791C18.8319 0.685791 14.3022 2.05985 10.4494 4.63421C6.59665 7.20856 3.59376 10.8676 1.82051 15.1486C0.0472605 19.4296 -0.416702 24.1403 0.487292 28.685C1.39129 33.2297 3.62263 37.4042 6.89917 40.6807C10.1757 43.9573 14.3503 46.1886 18.8949 47.0926C23.4396 47.9966 28.1503 47.5327 32.4313 45.7594C36.7123 43.9862 40.3713 40.9833 42.9457 37.1305C45.5201 33.2777 46.8941 28.748 46.8941 24.1143C46.887 17.9028 44.4164 11.9478 40.0242 7.55567C35.6321 3.16351 29.6771 0.692878 23.4656 0.685791ZM29.2946 23.5975H25.4831V37.1861H19.8335V23.5975H17.1466V18.7967H19.8322V15.6907C19.7717 14.9269 19.8776 14.1591 20.1427 13.4402C20.4077 12.7213 20.8255 12.0684 21.3673 11.5267C21.9091 10.9849 22.5619 10.5671 23.2808 10.3021C23.9997 10.037 24.7675 9.93111 25.5313 9.99159L29.715 10.009V14.6746H26.6787C26.5089 14.6648 26.339 14.6929 26.1813 14.7567C26.0236 14.8205 25.882 14.9184 25.7668 15.0436C25.6515 15.1687 25.5655 15.3178 25.5148 15.4802C25.4641 15.6425 25.4501 15.8141 25.4738 15.9826V18.8074H29.7779L29.2946 23.5975Z" fill="white"/>
  </svg>
  