<svg width="48" height="48" viewBox="0 0 48 48" fill="none" xmlns="http://www.w3.org/2000/svg">
  <path
    d="M24.3426 0.685791C19.7089 0.685791 15.1792 2.05985 11.3264 4.63421C7.4736 7.20856 4.47071 10.8676 2.69746 15.1486C0.924214 19.4296 0.460251 24.1403 1.36425 28.685C2.26824 33.2297 4.49959 37.4042 7.77612 40.6807C11.0527 43.9573 15.2272 46.1886 19.7719 47.0926C24.3166 47.9966 29.0273 47.5327 33.3083 45.7594C37.5893 43.9862 41.2483 40.9833 43.8227 37.1305C46.397 33.2777 47.7711 28.748 47.7711 24.1143C47.7711 17.9007 45.3027 11.9415 40.909 7.54784C36.5153 3.15414 30.5562 0.685791 24.3426 0.685791ZM17.5349 36.103H11.8291V18.9373H17.5349V36.103ZM14.682 16.5931H14.6445C14.2374 16.6161 13.8298 16.5552 13.4472 16.4141C13.0646 16.2729 12.7151 16.0546 12.4205 15.7727C12.1259 15.4907 11.8924 15.1512 11.7346 14.7751C11.5767 14.3991 11.4979 13.9946 11.5031 13.5869C11.5083 13.1791 11.5972 12.7767 11.7645 12.4048C11.9318 12.0329 12.1738 11.6993 12.4754 11.4249C12.7771 11.1505 13.132 10.9411 13.518 10.8097C13.9041 10.6782 14.313 10.6276 14.7195 10.661C15.1282 10.6323 15.5385 10.6885 15.9245 10.8258C16.3105 10.9632 16.664 11.1788 16.9628 11.4592C17.2616 11.7395 17.4993 12.0786 17.6609 12.4551C17.8225 12.8317 17.9046 13.2375 17.902 13.6473C17.8994 14.057 17.8122 14.4618 17.6459 14.8362C17.4795 15.2107 17.2376 15.5467 16.9353 15.8233C16.633 16.0999 16.2768 16.311 15.889 16.4435C15.5013 16.5759 15.0903 16.6269 14.682 16.5931ZM38.1105 36.103H32.4033V26.9257C32.4033 24.6177 31.5773 23.0433 29.5129 23.0433C28.8693 23.0471 28.2426 23.2497 27.7185 23.6233C27.1944 23.9969 26.7985 24.5232 26.585 25.1304C26.4389 25.5794 26.3754 26.0511 26.3976 26.5227V36.1097H20.6917C20.6917 36.1097 20.7667 20.5532 20.6917 18.944H26.3976V21.3738C26.9141 20.4769 27.6665 19.7386 28.573 19.2392C29.4796 18.7398 30.5057 18.4983 31.5398 18.541C35.2884 18.541 38.1092 20.995 38.1092 26.267L38.1105 36.103Z"
    fill="white" />
</svg>
  