<svg width="104" height="89" viewBox="0 0 104 89" fill="none" xmlns="http://www.w3.org/2000/svg">
  <path
    d="M78.2359 47.334C83.9706 48.8401 90.2128 48.8758 96.1101 48.9593C97.7401 48.9831 99.37 48.995 101 49.0189C98.5094 52.1025 94.6982 54.0775 90.4191 54.0775C90.2525 54.0775 90.0899 54.0695 89.9273 54.0656C88.3409 59.7918 83.0822 64 76.836 64C75.781 64 74.7539 63.8808 73.7664 63.6503C74.2224 58.7109 73.9091 53.1834 71.8191 48.7447C70.907 46.8015 69.5903 45.2199 68 44C71.4344 45.0411 74.7658 46.424 78.2359 47.334Z"
    fill="white" />
  <mask id="mask0_124_886" style="mask-type:luminance" maskUnits="userSpaceOnUse" x="48" y="6"
    width="56" height="39">
    <path d="M48.1929 6.55103H103.557V44.9254H48.1929V6.55103Z" fill="white" />
  </mask>
  <g mask="url(#mask0_124_886)">
    <path
      d="M48.4556 30.3204C48.6908 29.0523 48.9653 27.9017 49.5848 26.8524C49.9024 26.3177 49.9181 26.2609 50.2671 25.8842C50.616 25.5155 50.9023 25.2441 51.0865 25.1185C52.8902 23.8747 55.0428 23.4209 57.3601 23.0968C59.7441 22.7606 62.5986 22.797 64.1081 20.5202C65.4687 18.4702 65.1237 15.4438 65.6177 13.1062C65.7667 12.4134 65.951 11.7652 66.1784 11.1494C68.5624 8.9009 71.7423 7.52344 75.2359 7.52344C82.6505 7.52344 88.6614 13.7058 88.6614 21.3345C88.6614 23.267 88.2732 25.1063 87.5792 26.7755C88.383 26.6215 89.2103 26.5364 90.0573 26.5364C97.4718 26.5364 103.483 32.7229 103.483 40.3516C103.483 41.6926 103.295 42.989 102.949 44.2125C100.02 44.1517 97.0876 44.1396 94.1586 44.0747C88.7202 43.9573 82.9995 43.8884 77.7728 42.1706C73.7655 40.8499 69.8485 39.1726 65.7118 38.3016C61.6693 37.4548 57.3601 37.2118 53.9842 40.0315C53.7175 39.9748 53.4509 39.9181 53.1843 39.8492C52.0315 39.5575 51.3571 39.3549 50.5298 38.8323C49.8946 38.4312 49.4397 38.0139 49.0986 37.4143C48.6634 36.6405 48.3458 35.6803 48.2713 34.5703C48.1811 33.1604 48.1928 31.71 48.4556 30.3204Z"
      fill="white" />
  </g>
  <mask id="mask1_124_886" style="mask-type:luminance" maskUnits="userSpaceOnUse" x="16" y="0"
    width="48" height="32">
    <path d="M16.0723 0H63.2496V31.4426H16.0723V0Z" fill="white" />
  </mask>
  <g mask="url(#mask1_124_886)">
    <path
      d="M60.6342 14.7266C60.497 15.8894 60.5048 16.7361 60.2107 17.7327L60.2068 17.7489C60.148 17.7732 60.1049 17.7894 60.1088 17.7935C59.9559 17.8381 59.799 17.8826 59.6422 17.915C58.3718 18.1865 57.07 18.2715 55.7878 18.4701C53.5058 18.8306 51.1023 19.3776 49.1222 20.6618C45.7109 22.8698 44.0484 26.7227 43.6249 30.7335C34.1518 30.6971 24.067 29.4492 17.0014 22.2945C16.8328 22.1284 16.6603 21.9988 16.4839 21.8935C16.4799 21.7071 16.4682 21.5207 16.4682 21.3344C16.4682 13.7057 22.479 7.52331 29.8976 7.52331C33.2108 7.52331 36.2456 8.75897 38.5865 10.809C39.9157 4.61849 45.2757 -0.012207 51.6943 -0.012207C56.5172 -0.012207 60.7401 2.60092 63.1083 6.53073C62.43 7.62864 61.8889 8.81974 61.5125 10.0959C61.0655 11.6071 60.8224 13.1628 60.6342 14.7266Z"
      fill="white" />
  </g>
  <path
    d="M10.4435 56.2681C10.7158 54.2948 11.0232 52.0402 12.3576 50.4849C15.0497 47.3461 18.8467 45.8752 22.7799 45.5215C22.7488 46.3816 22.7332 47.2456 22.7332 48.1057C22.7293 51.2043 27.4017 51.2043 27.4056 48.1057C27.4095 44.987 27.39 41.8924 28.5299 38.9868C29.4636 36.6035 31.5838 35.2331 34.4122 35.0241C34.4822 35.0201 34.5483 35.0121 34.6144 35C37.6762 35.3979 40.7807 35.5466 43.8502 35.5586C43.8619 35.6551 43.8736 35.7515 43.8852 35.848C44.6205 41.0887 48.5615 43.8617 53.3661 44.7097C55.9532 45.1678 58.6726 45.1397 61.2169 45.7868C63.2632 46.3052 65.2862 47.334 66.3755 48.8934C67.7294 50.8305 68.3518 52.9324 68.6864 55.3598C68.9782 57.4818 69.056 59.7203 68.9626 61.9267C66.5895 64.1813 63.4188 65.5638 59.9331 65.5638C55.0701 65.5638 50.814 62.8832 48.4914 58.8804C46.1144 61.1511 42.9321 62.5376 39.4307 62.5376C37.7423 62.5376 36.1278 62.2121 34.6378 61.6213C32.4164 66.0059 27.9619 69 22.8227 69C16.7187 69 11.5795 64.7801 10 59.021C10.1751 58.1248 10.3151 57.2085 10.4435 56.2681Z"
    fill="white" />
  <mask id="mask2_124_886" style="mask-type:luminance" maskUnits="userSpaceOnUse" x="0" y="26"
    width="28" height="27">
    <path d="M0 26.2568H27.1136V52.1855H0V26.2568Z" fill="white" />
  </mask>
  <g mask="url(#mask2_124_886)">
    <path
      d="M13.1549 26.5364C13.6451 26.5364 14.1313 26.5688 14.6057 26.6215C18.0915 29.8423 22.134 31.953 26.4471 33.3143C25.4982 34.2137 24.7062 35.3197 24.1494 36.6526C23.5887 37.9814 23.2084 39.3468 22.9456 40.7364C17.9385 41.0159 12.7628 42.7215 9.2261 46.5136C7.71652 48.1301 6.67746 50.0018 6.0697 52.0842C2.26242 49.6493 -0.270538 45.3063 -0.270538 40.3515C-0.270538 32.7228 5.74034 26.5364 13.1549 26.5364Z"
      fill="white" />
  </g>
  <path
    d="M44 62.2698C44 62.2698 42.0445 63.5823 37.4714 64.1425C32.8943 64.7067 31.2602 69.5245 30.739 71.1892C30.2139 72.8498 27.9292 81.4211 22.0472 86.5391C16.1652 91.6531 16.5571 87.3994 14.3351 86.207C12.1132 85.0105 12.9597 83.1498 14.727 81.6212C16.4904 80.0926 17.9286 74.3104 16.6864 71.3212C15.4441 68.3321 15.2521 67.6718 13.7708 66.1072C12.2896 64.5466 38.7646 53.6824 44 62.2698Z"
    fill="white" />
</svg>
  